<?xml version="1.0" encoding="utf-8" standalone="no"?>
<!DOCTYPE svg PUBLIC "-//W3C//DTD SVG 1.1//EN"
  "http://www.w3.org/Graphics/SVG/1.1/DTD/svg11.dtd">
<!-- Created with matplotlib (http://matplotlib.org/) -->
<svg height="576pt" version="1.1" viewBox="0 0 576 576" width="576pt" xmlns="http://www.w3.org/2000/svg" xmlns:xlink="http://www.w3.org/1999/xlink">
 <defs>
  <style type="text/css">
*{stroke-linecap:butt;stroke-linejoin:round;stroke-miterlimit:100000;}
  </style>
 </defs>
 <g id="figure_1">
  <g id="patch_1">
   <path d="M 0 576 
L 576 576 
L 576 0 
L 0 0 
z
" style="fill:#ffffff;"/>
  </g>
  <g id="axes_1">
   <g id="text_1">
    <!--  $ \operatorname{Episode\;1:\;Taking\;Judgments\;with\;a\;Grain\;of\;Salt} $  -->
    <defs>
     <path d="M 29.5 14.21875 
C 29.5 5.0625 24.5 -0.40625 19.40625 -0.40625 
C 16.796875 -0.40625 10.796875 0.765625 8.203125 6.734375 
C 8.59375 6.640625 9.09375 6.53125 9.5 6.53125 
C 11.40625 6.53125 13.796875 7.828125 13.796875 10.8125 
C 13.796875 13.203125 12.09375 15 9.59375 15 
C 7.203125 15 5.296875 13.515625 5.296875 10.65625 
C 5.296875 4.03125 11.40625 -2 19.59375 -2 
C 27.40625 -2 34.59375 3.578125 35.796875 11.9375 
C 35.90625 12.640625 35.90625 12.828125 35.90625 16.21875 
L 35.90625 58.046875 
C 35.90625 59.734375 35.90625 62.515625 36.09375 63.109375 
C 36.5 65 38.796875 65 41.90625 65 
L 41.90625 67.5 
C 41.703125 67.5 34.59375 67.5 32.09375 67.5 
C 27.90625 67.5 23.296875 67.5 19.09375 67.5 
L 19.09375 65 
L 21.5 65 
C 29.296875 65 29.5 63.90625 29.5 60.328125 
z
" id="CMR17-74"/>
     <path d="M 58.203125 34.109375 
C 60.203125 40 64.203125 40 65.703125 40 
L 65.703125 42.6875 
C 63.703125 42.6875 61.703125 42.6875 59.703125 42.6875 
C 57.796875 42.6875 53.5 42.6875 51.796875 42.78125 
L 51.796875 40 
C 54.90625 40 56.59375 38.203125 56.59375 35.71875 
C 56.59375 35.015625 56.40625 34.125 56.203125 33.4375 
L 46.796875 6.359375 
L 36.59375 35.546875 
C 36.40625 36.234375 36.09375 37.03125 36.09375 37.421875 
C 36.09375 40 39.5 40 41.09375 40 
L 41.09375 42.78125 
C 38.796875 42.6875 34.59375 42.6875 32.203125 42.6875 
C 29.703125 42.6875 27.09375 42.6875 24.796875 42.78125 
L 24.796875 40 
C 30.296875 40 30.296875 39.796875 32.40625 33.578125 
L 23.203125 7.046875 
L 13.296875 35.640625 
C 12.796875 36.921875 12.796875 37.125 12.796875 37.421875 
C 12.796875 40 16.203125 40 17.796875 40 
L 17.796875 42.78125 
C 15.40625 42.6875 11.203125 42.6875 8.703125 42.6875 
C 6.5 42.6875 3.09375 42.6875 1 42.78125 
L 1 40 
C 5.40625 40 6.5 39.703125 7.59375 36.421875 
L 19.90625 0.765625 
C 20.296875 -0.515625 20.59375 -0.8125 21.40625 -0.8125 
C 22.09375 -0.8125 22.5 -0.609375 23 0.875 
L 33.296875 30.9375 
L 43.703125 0.875 
C 44.203125 -0.609375 44.59375 -0.8125 45.296875 -0.8125 
C 46.09375 -0.8125 46.40625 -0.515625 46.796875 0.78125 
z
" id="CMR17-119"/>
     <path d="M 67.59375 30.203125 
C 67.59375 35.1875 66.703125 43.59375 54.796875 43.59375 
C 48 43.59375 43.296875 39 41.5 33.609375 
L 41.40625 33.609375 
C 40.203125 41.8125 34.296875 43.59375 28.703125 43.59375 
C 20.796875 43.59375 16.703125 37.5 15.203125 33.5 
L 15.09375 33.5 
L 15.09375 43.59375 
L 3.296875 42.5 
L 3.296875 39.90625 
C 9.203125 39.90625 10.09375 39.296875 10.09375 34.5 
L 10.09375 6.6875 
C 10.09375 2.875 9.703125 2.390625 3.296875 2.390625 
L 3.296875 -0.203125 
C 5.703125 0 10.09375 0 12.703125 0 
C 15.296875 0 19.796875 0 22.203125 -0.203125 
L 22.203125 2.390625 
C 15.796875 2.390625 15.40625 2.78125 15.40625 6.6875 
L 15.40625 25.90625 
C 15.40625 35.109375 21 42 28 42 
C 35.40625 42 36.203125 35.40625 36.203125 30.59375 
L 36.203125 6.6875 
C 36.203125 2.875 35.796875 2.390625 29.40625 2.390625 
L 29.40625 -0.203125 
C 31.796875 0 36.203125 0 38.796875 0 
C 41.40625 0 45.90625 0 48.296875 -0.203125 
L 48.296875 2.390625 
C 41.90625 2.390625 41.5 2.78125 41.5 6.6875 
L 41.5 25.90625 
C 41.5 35.109375 47.09375 42 54.09375 42 
C 61.5 42 62.296875 35.40625 62.296875 30.59375 
L 62.296875 6.6875 
C 62.296875 2.875 61.90625 2.390625 55.5 2.390625 
L 55.5 -0.203125 
C 57.90625 0 62.296875 0 64.90625 0 
C 67.5 0 72 0 74.40625 -0.203125 
L 74.40625 2.390625 
C 68 2.390625 67.59375 2.78125 67.59375 6.6875 
z
" id="CMR17-109"/>
     <path d="M 60.703125 25.234375 
L 58.90625 25.234375 
C 56.703125 10.5625 55.40625 2.59375 37.796875 2.59375 
L 23.90625 2.59375 
C 19.90625 2.59375 19.703125 3.078125 19.703125 6.46875 
L 19.703125 34 
L 29.09375 34 
C 38.5 34 39.40625 30.625 39.40625 22.34375 
L 41.203125 22.34375 
L 41.203125 48.140625 
L 39.40625 48.140625 
C 39.40625 39.953125 38.5 36.59375 29.09375 36.59375 
L 19.703125 36.59375 
L 19.703125 61.140625 
C 19.703125 64.5 19.90625 65 23.90625 65 
L 37.59375 65 
C 53.09375 65 54.90625 58.890625 56.296875 45.765625 
L 58.09375 45.765625 
L 55.703125 67.578125 
L 5.09375 67.578125 
L 5.09375 65 
C 12 65 13.09375 65 13.09375 60.53125 
L 13.09375 7.046875 
C 13.09375 2.59375 12 2.59375 5.09375 2.59375 
L 5.09375 0 
L 57.09375 0 
z
" id="CMR17-69"/>
     <path d="M 36 25.828125 
C 36 32.375 36 35.84375 31.796875 39.734375 
C 28.09375 43 23.796875 44 20.40625 44 
C 12.5 44 6.796875 37.609375 6.796875 30.796875 
C 6.796875 27 9.796875 27 10.40625 27 
C 11.703125 27 14 27.78125 14 30.53125 
C 14 33 12.09375 34.078125 10.40625 34.078125 
C 10 34.078125 9.5 33.96875 9.203125 33.875 
C 11.296875 40.5 16.703125 42.40625 20.203125 42.40625 
C 25.203125 42.40625 30.703125 37.953125 30.703125 29.453125 
L 30.703125 25 
C 24.796875 25 17.703125 24.203125 12.09375 21.203125 
C 5.796875 17.703125 4 12.703125 4 8.90625 
C 4 1.203125 13 -1 18.296875 -1 
C 23.796875 -1 28.90625 2.171875 31.09375 7.984375 
C 31.296875 3.640625 34.09375 -0.28125 38.5 -0.28125 
C 40.59375 -0.28125 45.90625 1.09375 45.90625 8.859375 
L 45.90625 14.375 
L 44.09375 14.375 
L 44.09375 8.78125 
C 44.09375 2.78125 41.40625 2 40.09375 2 
C 36 2 36 7.15625 36 11.53125 
z
M 30.703125 13.59375 
C 30.703125 4.953125 24.5 0.59375 19 0.59375 
C 14 0.59375 10.09375 4.296875 10.09375 8.90625 
C 10.09375 11.890625 11.40625 17.1875 17.203125 20.390625 
C 22 23.09375 27.5 23.5 30.703125 23.5 
z
" id="CMR17-97"/>
     <path d="M 41.5 30.203125 
C 41.5 35.296875 40.5 43.59375 28.703125 43.59375 
C 20.796875 43.59375 16.703125 37.5 15.203125 33.5 
L 15.09375 33.5 
L 15.09375 43.59375 
L 3.296875 42.5 
L 3.296875 39.90625 
C 9.203125 39.90625 10.09375 39.296875 10.09375 34.5 
L 10.09375 6.6875 
C 10.09375 2.875 9.703125 2.390625 3.296875 2.390625 
L 3.296875 -0.203125 
C 5.703125 0 10.09375 0 12.703125 0 
C 15.296875 0 19.796875 0 22.203125 -0.203125 
L 22.203125 2.390625 
C 15.796875 2.390625 15.40625 2.78125 15.40625 6.6875 
L 15.40625 25.90625 
C 15.40625 35.109375 21 42 28 42 
C 35.40625 42 36.203125 35.40625 36.203125 30.59375 
L 36.203125 6.6875 
C 36.203125 2.875 35.796875 2.390625 29.40625 2.390625 
L 29.40625 -0.203125 
C 31.796875 0 36.203125 0 38.796875 0 
C 41.40625 0 45.90625 0 48.296875 -0.203125 
L 48.296875 2.390625 
C 41.90625 2.390625 41.5 2.78125 41.5 6.6875 
z
" id="CMR17-110"/>
     <path d="M 62.203125 67.59375 
L 4.5 67.59375 
L 2.796875 45.59375 
L 4.59375 45.59375 
C 5.90625 62.125 7.296875 65 22.703125 65 
C 24.5 65 27.40625 65 28.203125 64.90625 
C 30.09375 64.609375 30.09375 63.40625 30.09375 61.125 
L 30.09375 7.171875 
C 30.09375 3.59375 29.796875 2.5 21.5 2.5 
L 18.703125 2.5 
L 18.703125 0 
C 23.5 0 28.5 0 33.40625 0 
C 38.296875 0 43.296875 0 48.09375 0 
L 48.09375 2.5 
L 45.296875 2.5 
C 37 2.5 36.703125 3.59375 36.703125 7.171875 
L 36.703125 61.125 
C 36.703125 63.3125 36.703125 64.515625 38.5 64.90625 
C 39.296875 65 42.203125 65 44 65 
C 59.296875 65 60.796875 62.125 62.09375 45.59375 
L 63.90625 45.59375 
z
" id="CMR17-84"/>
     <path d="M 29.203125 67.59375 
L 29.203125 65 
C 35.09375 65 36 64.40625 36 59.6875 
L 36 36.640625 
C 35.59375 37.140625 31.5 43.59375 23.40625 43.59375 
C 13.203125 43.59375 3.296875 34.5 3.296875 21.3125 
C 3.296875 8.203125 12.59375 -1 22.40625 -1 
C 30.90625 -1 35.296875 5.265625 35.796875 5.9375 
L 35.796875 -0.984375 
L 47.90625 -0.984375 
L 47.90625 2 
C 42 2 41.09375 2.59375 41.09375 7.390625 
L 41.09375 68.6875 
z
M 35.796875 11.796875 
C 35.796875 8.796875 34 6.09375 31.703125 4.09375 
C 28.296875 1.09375 24.90625 0.59375 23 0.59375 
C 20.09375 0.59375 9.703125 2.09375 9.703125 21.1875 
C 9.703125 40.8125 21.296875 42 23.90625 42 
C 28.5 42 32.203125 39.40625 34.5 35.796875 
C 35.796875 33.703125 35.796875 33.40625 35.796875 31.609375 
z
" id="CMR17-100"/>
     <path d="M 26.59375 63.40625 
C 26.59375 65.5 26.5 65.5 25.09375 65.5 
C 21.203125 61.1875 15.296875 59.796875 9.703125 59.796875 
C 9.40625 59.796875 8.90625 59.796875 8.796875 59.5 
C 8.703125 59.296875 8.703125 59.09375 8.703125 57 
C 11.796875 57 17 57.59375 21 59.984375 
L 21 7.203125 
C 21 3.6875 20.796875 2.5 12.203125 2.5 
L 9.203125 2.5 
L 9.203125 0 
C 14 0 19 0 23.796875 0 
C 28.59375 0 33.59375 0 38.40625 0 
L 38.40625 2.5 
L 35.40625 2.5 
C 26.796875 2.5 26.59375 3.59375 26.59375 7.15625 
z
" id="CMR17-49"/>
     <path d="M 15.296875 40 
L 26.703125 40 
L 26.703125 42.578125 
L 15.09375 42.578125 
L 15.09375 54.59375 
C 15.09375 62.84375 19.296875 68 23.59375 68 
C 24.90625 68 26.40625 67.609375 27.40625 66.90625 
C 26.59375 66.703125 24.5 66.015625 24.5 63.546875 
C 24.5 60.953125 26.5 60.15625 27.90625 60.15625 
C 29.296875 60.15625 31.296875 60.953125 31.296875 63.546875 
C 31.296875 67.3125 27.703125 69.59375 23.703125 69.59375 
C 18 69.59375 10.203125 64.9375 10.203125 54.390625 
L 10.203125 42.578125 
L 2.203125 42.578125 
L 2.203125 40 
L 10.203125 40 
L 10.203125 6.671875 
C 10.203125 2.875 9.796875 2.390625 3.40625 2.390625 
L 3.40625 -0.203125 
C 5.796875 0 10.40625 0 13 0 
C 15.90625 0 21 0 23.703125 -0.203125 
L 23.703125 2.390625 
C 16.5 2.390625 15.296875 2.390625 15.296875 6.859375 
z
" id="CMR17-102"/>
     <path d="M 43.796875 67.03125 
C 43.796875 68.8125 43.703125 68.921875 43.09375 68.921875 
C 42.5 68.921875 42.296875 68.515625 41.90625 67.625 
L 38.90625 61.046875 
C 35.09375 66.515625 29.296875 69 23 69 
C 12.796875 69 4.59375 60.953125 4.59375 50.828125 
C 4.59375 47.75 5.296875 43.375 8.703125 39.21875 
C 12.40625 34.65625 15.90625 33.859375 23.90625 31.765625 
C 26.90625 30.96875 31.90625 29.671875 32.90625 29.28125 
C 38.59375 26.90625 41.59375 20.953125 41.59375 15.390625 
C 41.59375 8.234375 36.5 0.59375 27.796875 0.59375 
C 17.09375 0.59375 7.09375 6.546875 6.40625 20.484375 
C 6.296875 22.078125 6.203125 22.171875 5.5 22.171875 
C 4.703125 22.171875 4.59375 22.078125 4.59375 20.078125 
L 4.59375 -0.015625 
C 4.59375 -1.796875 4.703125 -1.90625 5.296875 -1.90625 
C 6 -1.90625 6.203125 -1.40625 7.59375 1.6875 
C 7.703125 1.984375 7.703125 2.1875 9.59375 5.953125 
C 14.59375 -0.609375 23 -2 27.796875 -2 
C 38.703125 -2 46.40625 7.046875 46.40625 17.5625 
C 46.40625 22.71875 44.5 26.6875 43.40625 28.484375 
C 39.203125 34.84375 34.703125 36.03125 29.90625 37.21875 
C 29.203125 37.53125 29 37.53125 23.40625 38.90625 
C 18 40.296875 15.703125 41 13.203125 43.6875 
C 10.40625 46.75 9.40625 49.9375 9.40625 53.109375 
C 9.40625 59.5625 14.59375 66.609375 23.09375 66.609375 
C 33.703125 66.609375 40.296875 59.15625 41.796875 46.765625 
C 42.09375 44.96875 42.203125 44.875 42.90625 44.875 
C 43.796875 44.875 43.796875 45.171875 43.796875 46.859375 
z
" id="CMR17-83"/>
     <path d="M 16.59375 38.921875 
C 16.59375 41.40625 14.59375 43 12.5 43 
C 10.5 43 8.40625 41.40625 8.40625 38.921875 
C 8.40625 36.4375 10.40625 34.84375 12.5 34.84375 
C 14.5 34.84375 16.59375 36.4375 16.59375 38.921875 
M 16.59375 4.078125 
C 16.59375 6.5625 14.59375 8.15625 12.5 8.15625 
C 10.5 8.15625 8.40625 6.5625 8.40625 4.078125 
C 8.40625 1.59375 10.40625 0 12.5 0 
C 14.5 0 16.59375 1.59375 16.59375 4.078125 
" id="CMR17-58"/>
     <path d="M 22 -16.609375 
C 15.59375 -16.609375 15.203125 -16.203125 15.203125 -12.328125 
L 15.203125 6.28125 
C 18.09375 2.09375 22.296875 -0.59375 27.59375 -0.59375 
C 37.59375 -0.59375 47.703125 8.171875 47.703125 21.6875 
C 47.703125 34.234375 39 43.78125 28.703125 43.78125 
C 22.703125 43.78125 17.796875 40.5 15 36.53125 
L 15 43.78125 
L 3.09375 42.6875 
L 3.09375 40.109375 
C 9 40.109375 9.90625 39.5 9.90625 34.734375 
L 9.90625 -12.328125 
C 9.90625 -16.109375 9.5 -16.609375 3.09375 -16.609375 
L 3.09375 -19.1875 
C 5.5 -19 9.90625 -19 12.5 -19 
C 15.09375 -19 19.59375 -19 22 -19.1875 
z
M 15.203125 31.4375 
C 15.203125 32.84375 15.203125 34.921875 19.09375 38.609375 
C 19.59375 39.015625 23 42 28 42 
C 35.296875 42 41.296875 32.9375 41.296875 21.59375 
C 41.296875 10.25 34.90625 1 27 1 
C 23.40625 1 19.5 2.6875 16.5 7.375 
C 15.203125 9.5625 15.203125 10.15625 15.203125 11.75 
z
" id="CMR17-112"/>
     <path d="M 15 23.390625 
C 15 33 19.09375 42 26.59375 42 
C 27.296875 42 28 41.90625 28.703125 41.59375 
C 28.703125 41.59375 26.5 40.890625 26.5 38.3125 
C 26.5 35.90625 28.40625 34.90625 29.90625 34.90625 
C 31.09375 34.90625 33.296875 35.609375 33.296875 38.40625 
C 33.296875 41.609375 30.09375 43.59375 26.703125 43.59375 
C 19.09375 43.59375 15.796875 36.203125 14.796875 32.703125 
L 14.703125 32.703125 
L 14.703125 43.59375 
L 3.09375 42.5 
L 3.09375 39.90625 
C 9 39.90625 9.90625 39.296875 9.90625 34.5 
L 9.90625 6.6875 
C 9.90625 2.875 9.5 2.390625 3.09375 2.390625 
L 3.09375 -0.203125 
C 5.5 0 10.09375 0 12.703125 0 
C 15.59375 0 20.703125 0 23.40625 -0.203125 
L 23.40625 2.390625 
C 16.203125 2.390625 15 2.390625 15 6.875 
z
" id="CMR17-114"/>
     <path d="M 15.296875 68.6875 
L 3.40625 67.59375 
L 3.40625 65 
C 9.296875 65 10.203125 64.40625 10.203125 59.640625 
L 10.203125 6.65625 
C 10.203125 2.875 9.796875 2.390625 3.40625 2.390625 
L 3.40625 -0.203125 
C 5.796875 0 10.203125 0 12.703125 0 
C 15.296875 0 19.703125 0 22.09375 -0.203125 
L 22.09375 2.390625 
C 15.703125 2.390625 15.296875 2.78125 15.296875 6.65625 
z
" id="CMR17-108"/>
     <path d="M 15.09375 40 
L 29.09375 40 
L 29.09375 42.578125 
L 15.09375 42.578125 
L 15.09375 61 
L 13.296875 61 
C 13.09375 50.703125 9.59375 41.6875 1.09375 41.6875 
L 1.09375 40 
L 9.796875 40 
L 9.796875 12.046875 
C 9.796875 10.15625 9.796875 -1 21.40625 -1 
C 27.296875 -1 30.703125 4.78125 30.703125 12.140625 
L 30.703125 17.8125 
L 28.90625 17.8125 
L 28.90625 12.234375 
C 28.90625 5.375 26.203125 0.796875 22 0.796875 
C 19.09375 0.796875 15.09375 2.78125 15.09375 11.84375 
z
" id="CMR17-116"/>
     <path d="M 26.09375 26.140625 
C 26 26.34375 25.5 26.9375 25.5 27.234375 
C 25.5 27.4375 32.59375 33.921875 33.5 34.71875 
C 39.203125 39.5 42.796875 40 45.40625 40 
L 45.40625 42.703125 
C 44.796875 42.703125 44.59375 42.703125 44.5 42.5 
L 39.59375 42.5 
C 36.796875 42.5 32.5 42.5 29.796875 42.703125 
L 29.796875 40.09375 
C 31.203125 39.984375 32.203125 39.1875 32.203125 37.796875 
C 32.203125 35.796875 30.203125 33.90625 30.09375 33.90625 
L 15 20.140625 
L 15 68.6875 
L 3.09375 67.59375 
L 3.09375 65 
C 9 65 9.90625 64.40625 9.90625 59.640625 
L 9.90625 6.65625 
C 9.90625 2.875 9.5 2.390625 3.09375 2.390625 
L 3.09375 -0.203125 
C 5.5 0 9.90625 0 12.40625 0 
C 14.90625 0 19.296875 0 21.703125 -0.203125 
L 21.703125 2.390625 
C 15.296875 2.390625 14.90625 2.78125 14.90625 6.6875 
L 14.90625 17.65625 
L 21.796875 23.9375 
L 31.90625 8.96875 
C 33.09375 7.171875 34.09375 5.765625 34.09375 4.46875 
C 34.09375 2.6875 32.296875 2.390625 31.09375 2.390625 
L 31.09375 -0.203125 
C 33.5 0 37.796875 0 40.296875 0 
C 42.09375 0 45.796875 0 47.5 0 
L 47.5 2.390625 
C 42.796875 2.390625 41.703125 3.28125 38.703125 7.671875 
z
" id="CMR17-107"/>
     <path d="M 11.09375 18.1875 
C 13 16.6875 16.296875 15 20.296875 15 
C 28.203125 15 35 21.203125 35 29.5 
C 35 32.09375 34.203125 36.09375 31.203125 39.203125 
C 34 42.0625 38.09375 43 40.40625 43 
C 40.796875 43 41.40625 43 41.90625 42.71875 
C 41.5 42.625 40.59375 42.234375 40.59375 40.703125 
C 40.59375 39.484375 41.5 38.609375 42.796875 38.609375 
C 44.296875 38.609375 45.09375 39.578125 45.09375 40.84375 
C 45.09375 42.671875 43.59375 44.59375 40.40625 44.59375 
C 36.40625 44.59375 32.90625 42.78125 30.09375 40.3125 
C 27.09375 43.015625 23.5 44 20.296875 44 
C 12.40625 44 5.59375 37.796875 5.59375 29.5 
C 5.59375 23.78125 8.90625 20.1875 9.90625 19.1875 
C 6.90625 15.6875 6.90625 11.609375 6.90625 11.109375 
C 6.90625 8.515625 7.90625 4.71875 11.296875 2.625 
C 6.09375 1.328125 2 -2.640625 2 -7.59375 
C 2 -14.734375 11.5 -20 22.90625 -20 
C 33.90625 -20 43.796875 -14.9375 43.796875 -7.484375 
C 43.796875 6 29 6 21.296875 6 
C 19 6 14.90625 6 14.40625 6.109375 
C 11.296875 6.609375 9.203125 9.40625 9.203125 12.90625 
C 9.203125 13.796875 9.203125 16 11.09375 18.1875 
M 20.296875 16.6875 
C 11.5 16.6875 11.5 27.5 11.5 29.515625 
C 11.5 31.5 11.5 42.3125 20.296875 42.3125 
C 29.09375 42.3125 29.09375 31.5 29.09375 29.515625 
C 29.09375 27.5 29.09375 16.6875 20.296875 16.6875 
M 22.90625 -18.296875 
C 12.90625 -18.296875 6 -13.046875 6 -7.59375 
C 6 -4.515625 7.703125 -1.640625 9.90625 -0.0625 
C 12.40625 1.625 13.40625 1.625 20.203125 1.625 
C 28.40625 1.625 39.796875 1.625 39.796875 -7.59375 
C 39.796875 -13.046875 32.90625 -18.296875 22.90625 -18.296875 
" id="CMR17-103"/>
     <path d="M 62.09375 19.265625 
C 62.09375 23.015625 62.40625 23.515625 68.59375 23.515625 
L 68.59375 26.09375 
C 66.203125 26 60.796875 26 58.09375 26 
C 55.296875 26 47.5 26 43.703125 26 
L 43.703125 23.515625 
L 46.703125 23.515625 
C 55.296875 23.515625 55.5 22.40625 55.5 18.765625 
L 55.5 12.09375 
C 55.5 0.984375 42.5 0.984375 39.40625 0.984375 
C 29.09375 0.984375 12.203125 7.984375 12.203125 33.75 
C 12.203125 59.5 28.796875 66.40625 38.5 66.40625 
C 49.796875 66.40625 58 56.65625 59.90625 42.828125 
C 60.09375 41.625 60.09375 41.421875 61 41.421875 
C 62.09375 41.421875 62.09375 41.625 62.09375 43.421875 
L 62.09375 67 
C 62.09375 68.78125 62 68.890625 61.40625 68.890625 
C 61 68.890625 60.90625 68.78125 60.203125 67.59375 
L 55.796875 59.234375 
C 50.90625 65.421875 44.90625 69 37.203125 69 
C 20.09375 69 4.59375 54 4.59375 33.5625 
C 4.59375 13.203125 19.796875 -2 37.40625 -2 
C 45.5 -2 53.40625 0.875 56.5 6.515625 
C 58.203125 2.46875 61 -0.3125 61.5 -0.3125 
C 62 -0.3125 62.09375 -0.203125 62.09375 1.5625 
z
" id="CMR17-71"/>
     <path d="M 38.09375 23 
C 38.5 23.40625 38.5 23.609375 38.5 24.625 
C 38.5 34.96875 33.09375 44 21.703125 44 
C 11.09375 44 2.703125 33.890625 2.703125 21.609375 
C 2.703125 8.609375 12.203125 -1 22.796875 -1 
C 34 -1 38.40625 9.484375 38.40625 11.5625 
C 38.40625 12.25 37.796875 12.25 37.59375 12.25 
C 36.90625 12.25 36.796875 12.046875 36.40625 10.875 
C 34.203125 4.140625 28.703125 0.796875 23.5 0.796875 
C 19.203125 0.796875 14.90625 3.171875 12.203125 7.5 
C 9.09375 12.546875 9.09375 18.375 9.09375 23 
z
M 9.203125 24.5 
C 9.90625 39.140625 17.59375 42.40625 21.59375 42.40625 
C 28.40625 42.40625 33 35.890625 33.09375 24.5 
z
" id="CMR17-101"/>
     <path d="M 43.09375 21.1875 
C 43.09375 34 33.796875 44 22.90625 44 
C 12 44 2.703125 34 2.703125 21.1875 
C 2.703125 8.609375 12 -1 22.90625 -1 
C 33.796875 -1 43.09375 8.609375 43.09375 21.1875 
M 22.90625 0.796875 
C 18.203125 0.796875 14.203125 3.59375 11.90625 7.5 
C 9.40625 11.984375 9.09375 17.59375 9.09375 22 
C 9.09375 26.203125 9.296875 31.40625 11.90625 35.90625 
C 13.90625 39.203125 17.796875 42.40625 22.90625 42.40625 
C 27.40625 42.40625 31.203125 39.90625 33.59375 36.40625 
C 36.703125 31.703125 36.703125 25.109375 36.703125 22 
C 36.703125 18.09375 36.5 12.109375 33.796875 7.296875 
C 31 2.703125 26.703125 0.796875 22.90625 0.796875 
" id="CMR17-111"/>
     <path d="M 15.5 61.078125 
C 15.5 63.265625 13.703125 65.15625 11.40625 65.15625 
C 9.203125 65.15625 7.296875 63.375 7.296875 61.078125 
C 7.296875 58.890625 9.09375 57 11.40625 57 
C 13.59375 57 15.5 58.796875 15.5 61.078125 
M 3.796875 42.28125 
L 3.796875 39.703125 
C 9.40625 39.703125 10.203125 39.09375 10.203125 34.328125 
L 10.203125 6.671875 
C 10.203125 2.875 9.796875 2.390625 3.40625 2.390625 
L 3.40625 -0.203125 
C 5.796875 0 10.09375 0 12.59375 0 
C 15 0 19.09375 0 21.40625 -0.203125 
L 21.40625 2.390625 
C 15.5 2.390625 15.296875 2.984375 15.296875 6.5625 
L 15.296875 43.375 
z
" id="CMR17-105"/>
     <path d="M 29.40625 42.078125 
L 29.40625 39.5 
C 35.296875 39.5 36.203125 38.890625 36.203125 34.15625 
L 36.203125 16.125 
C 36.203125 7.8125 31.703125 0.59375 24.296875 0.59375 
C 16.09375 0.59375 15.40625 5.4375 15.40625 10.59375 
L 15.40625 43.171875 
L 3.296875 42.078125 
L 3.296875 39.5 
C 7.296875 39.5 10 39.5 10.09375 35.53125 
L 10.09375 16.53125 
C 10.09375 9.890625 10.09375 5.640625 12.703125 2.859375 
C 14 1.578125 16.5 -1 23.703125 -1 
C 32.203125 -1 35.5 5.890625 36.296875 7.90625 
L 36.40625 7.90625 
L 36.40625 -0.984375 
L 48.296875 -0.984375 
L 48.296875 2 
C 42.40625 2 41.5 2.59375 41.5 7.390625 
L 41.5 43.171875 
z
" id="CMR17-117"/>
     <path d="M 30.90625 42.140625 
C 30.90625 43.953125 30.796875 44.046875 30.203125 44.046875 
C 29.796875 44.046875 29.703125 43.953125 28.5 42.453125 
C 28.203125 42.046875 27.296875 41.03125 27 40.640625 
C 23.796875 44.046875 19.296875 44.046875 17.59375 44.046875 
C 6.5 44.046875 2.5 38.234375 2.5 32.4375 
C 2.5 23.40625 12.703125 21.328125 15.59375 20.703125 
C 21.90625 19.421875 24.09375 19.015625 26.203125 17.203125 
C 27.5 16.015625 29.703125 13.8125 29.703125 10.21875 
C 29.703125 6 27.296875 0.59375 18.09375 0.59375 
C 9.40625 0.59375 6.296875 7.1875 4.5 15.953125 
C 4.203125 17.34375 4.203125 17.453125 3.40625 17.453125 
C 2.59375 17.453125 2.5 17.34375 2.5 15.359375 
L 2.5 0.984375 
C 2.5 -0.796875 2.59375 -0.90625 3.203125 -0.90625 
C 3.703125 -0.90625 3.796875 -0.796875 4.296875 0 
C 4.90625 0.890625 6.40625 3.296875 7 4.3125 
C 9 1.609375 12.5 -1 18.09375 -1 
C 28 -1 33.296875 4.421875 33.296875 12.25 
C 33.296875 17.375 30.59375 20.078125 29.296875 21.28125 
C 26.296875 24.390625 22.796875 25.09375 18.59375 25.890625 
C 13.09375 27.109375 6.09375 28.515625 6.09375 34.640625 
C 6.09375 37.234375 7.5 42.765625 17.59375 42.765625 
C 28.296875 42.765625 28.90625 32.71875 29.09375 29.5 
C 29.203125 29 29.703125 28.890625 30 28.890625 
C 30.90625 28.890625 30.90625 29.203125 30.90625 30.90625 
z
" id="CMR17-115"/>
     <path d="M 41.5 30.203125 
C 41.5 35.296875 40.5 43.59375 28.703125 43.59375 
C 20.5 43.59375 16.5 37 15.296875 33.703125 
L 15.203125 33.703125 
L 15.203125 68.6875 
L 3.296875 67.59375 
L 3.296875 65 
C 9.203125 65 10.09375 64.40625 10.09375 59.640625 
L 10.09375 6.65625 
C 10.09375 2.875 9.703125 2.390625 3.296875 2.390625 
L 3.296875 -0.203125 
C 5.703125 0 10.09375 0 12.703125 0 
C 15.296875 0 19.796875 0 22.203125 -0.203125 
L 22.203125 2.390625 
C 15.796875 2.390625 15.40625 2.78125 15.40625 6.6875 
L 15.40625 25.90625 
C 15.40625 35.109375 21 42 28 42 
C 35.40625 42 36.203125 35.40625 36.203125 30.59375 
L 36.203125 6.6875 
C 36.203125 2.875 35.796875 2.390625 29.40625 2.390625 
L 29.40625 -0.203125 
C 31.796875 0 36.203125 0 38.796875 0 
C 41.40625 0 45.90625 0 48.296875 -0.203125 
L 48.296875 2.390625 
C 41.90625 2.390625 41.5 2.78125 41.5 6.6875 
z
" id="CMR17-104"/>
    </defs>
    <g transform="translate(45.9347983392 71.84138513)scale(0.24 -0.24)">
     <use transform="scale(0.9962640099626402)" xlink:href="#CMR17-69"/>
     <use transform="translate(62.586300518563206 0.0)scale(0.9962640099626402)" xlink:href="#CMR17-112"/>
     <use transform="translate(113.48167029887921 0.0)scale(0.9962640099626402)" xlink:href="#CMR17-105"/>
     <use transform="translate(138.3527287807441 0.0)scale(0.9962640099626402)" xlink:href="#CMR17-115"/>
     <use transform="translate(174.15406641597914 0.0)scale(0.9962640099626402)" xlink:href="#CMR17-111"/>
     <use transform="translate(222.44698226377648 0.0)scale(0.9962640099626402)" xlink:href="#CMR17-100"/>
     <use transform="translate(273.3423520440925 0.0)scale(0.9962640099626402)" xlink:href="#CMR17-101"/>
     <use transform="translate(341.5020212289851 0.0)scale(0.9962640099626402)" xlink:href="#CMR17-49"/>
     <use transform="translate(387.19249834604614 0.0)scale(0.9962640099626402)" xlink:href="#CMR17-58"/>
     <use transform="translate(456.3419707833905 0.0)scale(0.9962640099626402)" xlink:href="#CMR17-84"/>
     <use transform="translate(515.0445959487859 0.0)scale(0.9962640099626402)" xlink:href="#CMR17-97"/>
     <use transform="translate(560.7350730658469 0.0)scale(0.9962640099626402)" xlink:href="#CMR17-107"/>
     <use transform="translate(609.0279889136442 0.0)scale(0.9962640099626402)" xlink:href="#CMR17-105"/>
     <use transform="translate(633.8990473955091 0.0)scale(0.9962640099626402)" xlink:href="#CMR17-110"/>
     <use transform="translate(684.7944171758251 0.0)scale(0.9962640099626402)" xlink:href="#CMR17-103"/>
     <use transform="translate(759.4600691741906 0.0)scale(0.9962640099626402)" xlink:href="#CMR17-74"/>
     <use transform="translate(806.431858922595 0.0)scale(0.9962640099626402)" xlink:href="#CMR17-117"/>
     <use transform="translate(857.327228702911 0.0)scale(0.9962640099626402)" xlink:href="#CMR17-100"/>
     <use transform="translate(908.2225984832271 0.0)scale(0.9962640099626402)" xlink:href="#CMR17-103"/>
     <use transform="translate(953.913075600288 0.0)scale(0.9962640099626402)" xlink:href="#CMR17-109"/>
     <use transform="translate(1030.832665468361 0.0)scale(0.9962640099626402)" xlink:href="#CMR17-101"/>
     <use transform="translate(1071.3183259310788 0.0)scale(0.9962640099626402)" xlink:href="#CMR17-110"/>
     <use transform="translate(1119.611241778876 0.0)scale(0.9962640099626402)" xlink:href="#CMR17-116"/>
     <use transform="translate(1154.8920095783392 0.0)scale(0.9962640099626402)" xlink:href="#CMR17-115"/>
     <use transform="translate(1218.367355935749 0.0)scale(0.9962640099626402)" xlink:href="#CMR17-119"/>
     <use transform="translate(1284.8772364862236 0.0)scale(0.9962640099626402)" xlink:href="#CMR17-105"/>
     <use transform="translate(1309.7482949680887 0.0)scale(0.9962640099626402)" xlink:href="#CMR17-116"/>
     <use transform="translate(1345.0290627675515 0.0)scale(0.9962640099626402)" xlink:href="#CMR17-104"/>
     <use transform="translate(1423.5984412700423 0.0)scale(0.9962640099626402)" xlink:href="#CMR17-97"/>
     <use transform="translate(1496.9629271092779 0.0)scale(0.9962640099626402)" xlink:href="#CMR17-71"/>
     <use transform="translate(1569.3182730288763 0.0)scale(0.9962640099626402)" xlink:href="#CMR17-114"/>
     <use transform="translate(1604.5990408283392 0.0)scale(0.9962640099626402)" xlink:href="#CMR17-97"/>
     <use transform="translate(1650.2895179454001 0.0)scale(0.9962640099626402)" xlink:href="#CMR17-105"/>
     <use transform="translate(1675.1605764272651 0.0)scale(0.9962640099626402)" xlink:href="#CMR17-110"/>
     <use transform="translate(1753.7299549297559 0.0)scale(0.9962640099626402)" xlink:href="#CMR17-111"/>
     <use transform="translate(1799.4204320468168 0.0)scale(0.9962640099626402)" xlink:href="#CMR17-102"/>
     <use transform="translate(1860.473465592894 0.0)scale(0.9962640099626402)" xlink:href="#CMR17-83"/>
     <use transform="translate(1911.36883537321 0.0)scale(0.9962640099626402)" xlink:href="#CMR17-97"/>
     <use transform="translate(1957.059312490271 0.0)scale(0.9962640099626402)" xlink:href="#CMR17-108"/>
     <use transform="translate(1981.930370972136 0.0)scale(0.9962640099626402)" xlink:href="#CMR17-116"/>
    </g>
   </g>
  </g>
  <g id="axes_2">
   <g id="patch_2">
    <path d="M 46.156928 39.42571 
L 529.843072 39.42571 
L 529.843072 5.769616 
L 46.156928 5.769616 
z
" style="fill:#ffffff;"/>
   </g>
   <g id="patch_3">
    <path d="M 46.156928 39.42571 
L 529.843072 39.42571 
" style="fill:none;stroke:#000000;stroke-linecap:square;stroke-linejoin:miter;"/>
   </g>
   <g id="patch_4">
    <path d="M 46.156928 39.42571 
L 46.156928 5.769616 
" style="fill:none;stroke:#000000;stroke-linecap:square;stroke-linejoin:miter;"/>
   </g>
   <g id="patch_5">
    <path d="M 46.156928 5.769616 
L 529.843072 5.769616 
" style="fill:none;stroke:#000000;stroke-linecap:square;stroke-linejoin:miter;"/>
   </g>
   <g id="patch_6">
    <path d="M 529.843072 39.42571 
L 529.843072 5.769616 
" style="fill:none;stroke:#000000;stroke-linecap:square;stroke-linejoin:miter;"/>
   </g>
   <g id="matplotlib.axis_1"/>
   <g id="matplotlib.axis_2"/>
  </g>
  <g id="axes_3">
   <g id="patch_7">
    <path d="M 46.156928 535.612688 
L 529.843072 535.612688 
L 529.843072 92.313856 
L 46.156928 92.313856 
z
" style="fill:#ffffff;"/>
   </g>
   <g id="patch_8">
    <path clip-path="url(#p2db642d325)" d="M -3655.902401 4946.43606 
L 157.776807 4946.43606 
L 157.776807 -3830.880801 
L -3655.902401 -3830.880801 
z
" style="fill:#006374;opacity:0.15;stroke:#006374;stroke-linejoin:miter;"/>
   </g>
   <g id="patch_9">
    <path clip-path="url(#p2db642d325)" d="M -3655.902401 145.509716 
L 3711.009631 145.509716 
L 3711.009631 -3830.880801 
L -3655.902401 -3830.880801 
z
" style="fill:#006374;opacity:0.15;stroke:#006374;stroke-linejoin:miter;"/>
   </g>
   <g id="line2d_1">
    <defs>
     <path d="M 0 3 
C 0.795609 3 1.55874 2.683901 2.12132 2.12132 
C 2.683901 1.55874 3 0.795609 3 0 
C 3 -0.795609 2.683901 -1.55874 2.12132 -2.12132 
C 1.55874 -2.683901 0.795609 -3 0 -3 
C -0.795609 -3 -1.55874 -2.683901 -2.12132 -2.12132 
C -2.683901 -1.55874 -3 -0.795609 -3 0 
C -3 0.795609 -2.683901 1.55874 -2.12132 2.12132 
C -1.55874 2.683901 -0.795609 3 0 3 
z
" id="mc7c18764b0" style="stroke:#001c7f;stroke-width:0.5;"/>
    </defs>
    <g clip-path="url(#p2db642d325)">
     <use style="fill:#001c7f;stroke:#001c7f;stroke-width:0.5;" x="397.432928656" xlink:href="#mc7c18764b0" y="118.065160878"/>
     <use style="fill:#001c7f;stroke:#001c7f;stroke-width:0.5;" x="211.399796512" xlink:href="#mc7c18764b0" y="206.724927156"/>
     <use style="fill:#001c7f;stroke:#001c7f;stroke-width:0.5;" x="285.81304937" xlink:href="#mc7c18764b0" y="162.395044017"/>
     <use style="fill:#001c7f;stroke:#001c7f;stroke-width:0.5;" x="99.7799172265" xlink:href="#mc7c18764b0" y="118.065160878"/>
     <use style="fill:#001c7f;stroke:#001c7f;stroke-width:0.5;" x="434.639555084" xlink:href="#mc7c18764b0" y="118.065160878"/>
     <use style="fill:#001c7f;stroke:#001c7f;stroke-width:0.5;" x="248.606422941" xlink:href="#mc7c18764b0" y="384.04445971"/>
     <use style="fill:#001c7f;stroke:#001c7f;stroke-width:0.5;" x="471.846181513" xlink:href="#mc7c18764b0" y="517.034109126"/>
     <use style="fill:#001c7f;stroke:#001c7f;stroke-width:0.5;" x="136.986543655" xlink:href="#mc7c18764b0" y="472.704225987"/>
     <use style="fill:#001c7f;stroke:#001c7f;stroke-width:0.5;" x="323.019675798" xlink:href="#mc7c18764b0" y="251.054810294"/>
     <use style="fill:#001c7f;stroke:#001c7f;stroke-width:0.5;" x="62.5732907978" xlink:href="#mc7c18764b0" y="295.384693433"/>
     <use style="fill:#001c7f;stroke:#001c7f;stroke-width:0.5;" x="360.226302227" xlink:href="#mc7c18764b0" y="384.04445971"/>
     <use style="fill:#001c7f;stroke:#001c7f;stroke-width:0.5;" x="174.193170084" xlink:href="#mc7c18764b0" y="428.374342848"/>
    </g>
   </g>
   <g id="line2d_2">
    <defs>
     <path d="M 0 3 
C 0.795609 3 1.55874 2.683901 2.12132 2.12132 
C 2.683901 1.55874 3 0.795609 3 0 
C 3 -0.795609 2.683901 -1.55874 2.12132 -2.12132 
C 1.55874 -2.683901 0.795609 -3 0 -3 
C -0.795609 -3 -1.55874 -2.683901 -2.12132 -2.12132 
C -2.683901 -1.55874 -3 -0.795609 -3 0 
C -3 0.795609 -2.683901 1.55874 -2.12132 2.12132 
C -1.55874 2.683901 -0.795609 3 0 3 
z
" id="m2610090a4c" style="stroke:#017517;stroke-width:0.5;"/>
    </defs>
    <g clip-path="url(#p2db642d325)">
     <use style="fill:#017517;stroke:#017517;stroke-width:0.5;" x="433.287945263" xlink:href="#m2610090a4c" y="379.088228103"/>
     <use style="fill:#017517;stroke:#017517;stroke-width:0.5;" x="321.668065977" xlink:href="#m2610090a4c" y="157.43881241"/>
     <use style="fill:#017517;stroke:#017517;stroke-width:0.5;" x="135.634933834" xlink:href="#m2610090a4c" y="201.768695549"/>
     <use style="fill:#017517;stroke:#017517;stroke-width:0.5;" x="358.874692406" xlink:href="#m2610090a4c" y="423.418111242"/>
     <use style="fill:#017517;stroke:#017517;stroke-width:0.5;" x="284.461439549" xlink:href="#m2610090a4c" y="113.108929272"/>
     <use style="fill:#017517;stroke:#017517;stroke-width:0.5;" x="172.841560263" xlink:href="#m2610090a4c" y="246.098578688"/>
     <use style="fill:#017517;stroke:#017517;stroke-width:0.5;" x="247.25481312" xlink:href="#m2610090a4c" y="290.428461826"/>
     <use style="fill:#017517;stroke:#017517;stroke-width:0.5;" x="396.081318835" xlink:href="#m2610090a4c" y="113.108929272"/>
     <use style="fill:#017517;stroke:#017517;stroke-width:0.5;" x="98.4283074053" xlink:href="#m2610090a4c" y="467.74799438"/>
     <use style="fill:#017517;stroke:#017517;stroke-width:0.5;" x="210.048186691" xlink:href="#m2610090a4c" y="423.418111242"/>
     <use style="fill:#017517;stroke:#017517;stroke-width:0.5;" x="61.2216809766" xlink:href="#m2610090a4c" y="334.758344965"/>
     <use style="fill:#017517;stroke:#017517;stroke-width:0.5;" x="470.494571692" xlink:href="#m2610090a4c" y="113.108929272"/>
     <use style="fill:#017517;stroke:#017517;stroke-width:0.5;" x="507.701198121" xlink:href="#m2610090a4c" y="512.077877519"/>
    </g>
   </g>
   <g id="line2d_3">
    <defs>
     <path d="M 0 3 
C 0.795609 3 1.55874 2.683901 2.12132 2.12132 
C 2.683901 1.55874 3 0.795609 3 0 
C 3 -0.795609 2.683901 -1.55874 2.12132 -2.12132 
C 1.55874 -2.683901 0.795609 -3 0 -3 
C -0.795609 -3 -1.55874 -2.683901 -2.12132 -2.12132 
C -2.683901 -1.55874 -3 -0.795609 -3 0 
C -3 0.795609 -2.683901 1.55874 -2.12132 2.12132 
C -1.55874 2.683901 -0.795609 3 0 3 
z
" id="m88cff7e3b0" style="stroke:#8c0900;stroke-width:0.5;"/>
    </defs>
    <g clip-path="url(#p2db642d325)">
     <use style="fill:#8c0900;stroke:#8c0900;stroke-width:0.5;" x="139.173494285" xlink:href="#m88cff7e3b0" y="154.375692821"/>
     <use style="fill:#8c0900;stroke:#8c0900;stroke-width:0.5;" x="325.206626429" xlink:href="#m88cff7e3b0" y="509.01475793"/>
     <use style="fill:#8c0900;stroke:#8c0900;stroke-width:0.5;" x="213.586747143" xlink:href="#m88cff7e3b0" y="376.025108514"/>
     <use style="fill:#8c0900;stroke:#8c0900;stroke-width:0.5;" x="362.413252857" xlink:href="#m88cff7e3b0" y="464.684874791"/>
     <use style="fill:#8c0900;stroke:#8c0900;stroke-width:0.5;" x="176.380120714" xlink:href="#m88cff7e3b0" y="376.025108514"/>
     <use style="fill:#8c0900;stroke:#8c0900;stroke-width:0.5;" x="474.033132143" xlink:href="#m88cff7e3b0" y="420.354991653"/>
     <use style="fill:#8c0900;stroke:#8c0900;stroke-width:0.5;" x="250.793373571" xlink:href="#m88cff7e3b0" y="243.035459098"/>
     <use style="fill:#8c0900;stroke:#8c0900;stroke-width:0.5;" x="288.0" xlink:href="#m88cff7e3b0" y="110.045809683"/>
     <use style="fill:#8c0900;stroke:#8c0900;stroke-width:0.5;" x="101.966867857" xlink:href="#m88cff7e3b0" y="198.70557596"/>
     <use style="fill:#8c0900;stroke:#8c0900;stroke-width:0.5;" x="64.760241428" xlink:href="#m88cff7e3b0" y="110.045809683"/>
     <use style="fill:#8c0900;stroke:#8c0900;stroke-width:0.5;" x="436.826505715" xlink:href="#m88cff7e3b0" y="331.695225376"/>
     <use style="fill:#8c0900;stroke:#8c0900;stroke-width:0.5;" x="399.619879286" xlink:href="#m88cff7e3b0" y="110.045809683"/>
    </g>
   </g>
   <g id="line2d_4">
    <defs>
     <path d="M 0 3 
C 0.795609 3 1.55874 2.683901 2.12132 2.12132 
C 2.683901 1.55874 3 0.795609 3 0 
C 3 -0.795609 2.683901 -1.55874 2.12132 -2.12132 
C 1.55874 -2.683901 0.795609 -3 0 -3 
C -0.795609 -3 -1.55874 -2.683901 -2.12132 -2.12132 
C -2.683901 -1.55874 -3 -0.795609 -3 0 
C -3 0.795609 -2.683901 1.55874 -2.12132 2.12132 
C -1.55874 2.683901 -0.795609 3 0 3 
z
" id="m440ca1bc55" style="stroke:#7600a1;stroke-width:0.5;"/>
    </defs>
    <g clip-path="url(#p2db642d325)">
     <use style="fill:#7600a1;stroke:#7600a1;stroke-width:0.5;" x="105.505428308" xlink:href="#m440ca1bc55" y="290.428461826"/>
     <use style="fill:#7600a1;stroke:#7600a1;stroke-width:0.5;" x="217.125307594" xlink:href="#m440ca1bc55" y="423.418111242"/>
     <use style="fill:#7600a1;stroke:#7600a1;stroke-width:0.5;" x="254.331934023" xlink:href="#m440ca1bc55" y="157.43881241"/>
     <use style="fill:#7600a1;stroke:#7600a1;stroke-width:0.5;" x="328.74518688" xlink:href="#m440ca1bc55" y="113.108929272"/>
     <use style="fill:#7600a1;stroke:#7600a1;stroke-width:0.5;" x="142.712054737" xlink:href="#m440ca1bc55" y="467.74799438"/>
     <use style="fill:#7600a1;stroke:#7600a1;stroke-width:0.5;" x="291.538560451" xlink:href="#m440ca1bc55" y="246.098578688"/>
     <use style="fill:#7600a1;stroke:#7600a1;stroke-width:0.5;" x="477.571692595" xlink:href="#m440ca1bc55" y="113.108929272"/>
     <use style="fill:#7600a1;stroke:#7600a1;stroke-width:0.5;" x="403.158439737" xlink:href="#m440ca1bc55" y="201.768695549"/>
     <use style="fill:#7600a1;stroke:#7600a1;stroke-width:0.5;" x="365.951813309" xlink:href="#m440ca1bc55" y="379.088228103"/>
     <use style="fill:#7600a1;stroke:#7600a1;stroke-width:0.5;" x="440.365066166" xlink:href="#m440ca1bc55" y="512.077877519"/>
     <use style="fill:#7600a1;stroke:#7600a1;stroke-width:0.5;" x="179.918681165" xlink:href="#m440ca1bc55" y="113.108929272"/>
     <use style="fill:#7600a1;stroke:#7600a1;stroke-width:0.5;" x="68.2988018795" xlink:href="#m440ca1bc55" y="334.758344965"/>
    </g>
   </g>
   <g id="line2d_5">
    <defs>
     <path d="M 0 3 
C 0.795609 3 1.55874 2.683901 2.12132 2.12132 
C 2.683901 1.55874 3 0.795609 3 0 
C 3 -0.795609 2.683901 -1.55874 2.12132 -2.12132 
C 1.55874 -2.683901 0.795609 -3 0 -3 
C -0.795609 -3 -1.55874 -2.683901 -2.12132 -2.12132 
C -2.683901 -1.55874 -3 -0.795609 -3 0 
C -3 0.795609 -2.683901 1.55874 -2.12132 2.12132 
C -1.55874 2.683901 -0.795609 3 0 3 
z
" id="mac7ead934b" style="stroke:#b8860b;stroke-width:0.5;"/>
    </defs>
    <g clip-path="url(#p2db642d325)">
     <use style="fill:#b8860b;stroke:#b8860b;stroke-width:0.5;" x="476.220082774" xlink:href="#mac7ead934b" y="118.065160878"/>
     <use style="fill:#b8860b;stroke:#b8860b;stroke-width:0.5;" x="252.980324202" xlink:href="#mac7ead934b" y="206.724927156"/>
     <use style="fill:#b8860b;stroke:#b8860b;stroke-width:0.5;" x="215.773697773" xlink:href="#mac7ead934b" y="118.065160878"/>
     <use style="fill:#b8860b;stroke:#b8860b;stroke-width:0.5;" x="290.18695063" xlink:href="#mac7ead934b" y="118.065160878"/>
     <use style="fill:#b8860b;stroke:#b8860b;stroke-width:0.5;" x="178.567071344" xlink:href="#mac7ead934b" y="384.04445971"/>
     <use style="fill:#b8860b;stroke:#b8860b;stroke-width:0.5;" x="439.013456345" xlink:href="#mac7ead934b" y="517.034109126"/>
     <use style="fill:#b8860b;stroke:#b8860b;stroke-width:0.5;" x="364.600203488" xlink:href="#mac7ead934b" y="472.704225987"/>
     <use style="fill:#b8860b;stroke:#b8860b;stroke-width:0.5;" x="141.360444916" xlink:href="#mac7ead934b" y="428.374342848"/>
     <use style="fill:#b8860b;stroke:#b8860b;stroke-width:0.5;" x="327.393577059" xlink:href="#mac7ead934b" y="295.384693433"/>
     <use style="fill:#b8860b;stroke:#b8860b;stroke-width:0.5;" x="66.9471920583" xlink:href="#mac7ead934b" y="162.395044017"/>
     <use style="fill:#b8860b;stroke:#b8860b;stroke-width:0.5;" x="104.153818487" xlink:href="#mac7ead934b" y="251.054810294"/>
     <use style="fill:#b8860b;stroke:#b8860b;stroke-width:0.5;" x="401.806829916" xlink:href="#mac7ead934b" y="339.714576571"/>
    </g>
   </g>
   <g id="line2d_6">
    <path clip-path="url(#p2db642d325)" d="M 64.760241 270.324032 
L 64.760241 270.324032 
L 64.760241 270.324032 
L 64.760241 270.324032 
L 64.760241 270.324032 
L 101.966868 272.987667 
L 101.966868 272.987667 
L 101.966868 272.987667 
L 101.966868 272.987667 
L 101.966868 272.987667 
L 139.173494 275.651303 
L 139.173494 275.651303 
L 139.173494 275.651303 
L 139.173494 275.651303 
L 139.173494 275.651303 
L 176.380121 278.314938 
L 176.380121 278.314938 
L 176.380121 278.314938 
L 176.380121 278.314938 
L 176.380121 278.314938 
L 213.586747 280.978573 
L 213.586747 280.978573 
L 213.586747 280.978573 
L 213.586747 280.978573 
L 213.586747 280.978573 
L 250.793374 283.642208 
L 250.793374 283.642208 
L 250.793374 283.642208 
L 250.793374 283.642208 
L 250.793374 283.642208 
L 288 286.305844 
L 288 286.305844 
L 288 286.305844 
L 288 286.305844 
L 288 286.305844 
L 325.206626 288.969479 
L 325.206626 288.969479 
L 325.206626 288.969479 
L 325.206626 288.969479 
L 325.206626 288.969479 
L 362.413253 291.633114 
L 362.413253 291.633114 
L 362.413253 291.633114 
L 362.413253 291.633114 
L 362.413253 291.633114 
L 399.619879 294.296749 
L 399.619879 294.296749 
L 399.619879 294.296749 
L 399.619879 294.296749 
L 399.619879 294.296749 
L 436.826506 296.960385 
L 436.826506 296.960385 
L 436.826506 296.960385 
L 436.826506 296.960385 
L 436.826506 296.960385 
L 474.033132 299.62402 
L 474.033132 299.62402 
L 474.033132 299.62402 
L 474.033132 299.62402 
L 474.033132 299.62402 
L 511.239759 302.287655 
" style="fill:none;stroke:#000000;stroke-linecap:square;"/>
   </g>
   <g id="patch_10">
    <path d="M 46.156928 535.612688 
L 529.843072 535.612688 
" style="fill:none;stroke:#000000;stroke-linecap:square;stroke-linejoin:miter;"/>
   </g>
   <g id="patch_11">
    <path d="M 46.156928 535.612688 
L 46.156928 92.313856 
" style="fill:none;stroke:#000000;stroke-linecap:square;stroke-linejoin:miter;"/>
   </g>
   <g id="patch_12">
    <path d="M 46.156928 92.313856 
L 529.843072 92.313856 
" style="fill:none;stroke:#000000;stroke-linecap:square;stroke-linejoin:miter;"/>
   </g>
   <g id="patch_13">
    <path d="M 529.843072 535.612688 
L 529.843072 92.313856 
" style="fill:none;stroke:#000000;stroke-linecap:square;stroke-linejoin:miter;"/>
   </g>
   <g id="matplotlib.axis_3">
    <g id="xtick_1">
     <g id="line2d_7">
      <defs>
       <path d="M 0 0 
L 0 -4 
" id="m0eb7ab85f8" style="stroke:#000000;stroke-width:0.5;"/>
      </defs>
      <g>
       <use style="stroke:#000000;stroke-width:0.5;" x="64.760241428" xlink:href="#m0eb7ab85f8" y="535.612687813"/>
      </g>
     </g>
     <g id="line2d_8">
      <defs>
       <path d="M 0 0 
L 0 4 
" id="m9e18707698" style="stroke:#000000;stroke-width:0.5;"/>
      </defs>
      <g>
       <use style="stroke:#000000;stroke-width:0.5;" x="64.760241428" xlink:href="#m9e18707698" y="92.3138564274"/>
      </g>
     </g>
     <g id="text_2">
      <!-- $1$ -->
      <g transform="translate(61.3459971147 549.550336182)scale(0.14 -0.14)">
       <use transform="scale(0.9962640099626402)" xlink:href="#CMR17-49"/>
      </g>
     </g>
    </g>
    <g id="xtick_2">
     <g id="line2d_9">
      <g>
       <use style="stroke:#000000;stroke-width:0.5;" x="176.380120714" xlink:href="#m0eb7ab85f8" y="535.612687813"/>
      </g>
     </g>
     <g id="line2d_10">
      <g>
       <use style="stroke:#000000;stroke-width:0.5;" x="176.380120714" xlink:href="#m9e18707698" y="92.3138564274"/>
      </g>
     </g>
     <g id="text_3">
      <!-- $4$ -->
      <defs>
       <path d="M 33.59375 64.40625 
C 33.59375 66.5 33.5 66.5 31.703125 66.5 
L 2 19.59375 
L 2 17 
L 27.796875 17 
L 27.796875 7.140625 
C 27.796875 3.5 27.59375 2.5 20.59375 2.5 
L 18.703125 2.5 
L 18.703125 0 
C 21.90625 0 27.296875 0 30.703125 0 
C 34.09375 0 39.5 0 42.703125 0 
L 42.703125 2.5 
L 40.796875 2.5 
C 33.796875 2.5 33.59375 3.5 33.59375 7.140625 
L 33.59375 17 
L 43.796875 17 
L 43.796875 19.59375 
L 33.59375 19.59375 
z
M 28.09375 57.859375 
L 28.09375 19.59375 
L 4 19.59375 
z
" id="CMR17-52"/>
      </defs>
      <g transform="translate(172.965876401 549.550336182)scale(0.14 -0.14)">
       <use transform="scale(0.9962640099626402)" xlink:href="#CMR17-52"/>
      </g>
     </g>
    </g>
    <g id="xtick_3">
     <g id="line2d_11">
      <g>
       <use style="stroke:#000000;stroke-width:0.5;" x="288.0" xlink:href="#m0eb7ab85f8" y="535.612687813"/>
      </g>
     </g>
     <g id="line2d_12">
      <g>
       <use style="stroke:#000000;stroke-width:0.5;" x="288.0" xlink:href="#m9e18707698" y="92.3138564274"/>
      </g>
     </g>
     <g id="text_4">
      <!-- $7$ -->
      <defs>
       <path d="M 45.09375 61.578125 
L 45.09375 63.765625 
L 21.59375 63.765625 
C 9.90625 63.765625 9.703125 65.078125 9.296875 67 
L 7.5 67 
L 4.59375 48.34375 
L 6.40625 48.34375 
C 6.703125 50.234375 7.40625 55.3125 8.59375 57.203125 
C 9.203125 58 16.59375 58 18.296875 58 
L 40.296875 58 
L 29.203125 41.578125 
C 21.796875 30.53125 16.703125 15.609375 16.703125 2.578125 
C 16.703125 1.390625 16.703125 -2 20.296875 -2 
C 23.90625 -2 23.90625 1.390625 23.90625 2.671875 
L 23.90625 7.265625 
C 23.90625 23.5625 26.703125 34.3125 31.296875 41.1875 
z
" id="CMR17-55"/>
      </defs>
      <g transform="translate(284.585755687 549.550336182)scale(0.14 -0.14)">
       <use transform="scale(0.9962640099626402)" xlink:href="#CMR17-55"/>
      </g>
     </g>
    </g>
    <g id="xtick_4">
     <g id="line2d_13">
      <g>
       <use style="stroke:#000000;stroke-width:0.5;" x="399.619879286" xlink:href="#m0eb7ab85f8" y="535.612687813"/>
      </g>
     </g>
     <g id="line2d_14">
      <g>
       <use style="stroke:#000000;stroke-width:0.5;" x="399.619879286" xlink:href="#m9e18707698" y="92.3138564274"/>
      </g>
     </g>
     <g id="text_5">
      <!-- $10$ -->
      <defs>
       <path d="M 42 31.640625 
C 42 37.75 41.90625 48.125 37.703125 56.109375 
C 34 63.109375 28.09375 65.59375 22.90625 65.59375 
C 18.09375 65.59375 12 63.40625 8.203125 56.203125 
C 4.203125 48.71875 3.796875 39.4375 3.796875 31.640625 
C 3.796875 25.953125 3.90625 17.28125 7 9.671875 
C 11.296875 -0.609375 19 -2 22.90625 -2 
C 27.5 -2 34.5 -0.109375 38.59375 9.375 
C 41.59375 16.28125 42 24.359375 42 31.640625 
M 22.90625 -0.40625 
C 16.5 -0.40625 12.703125 5.078125 11.296875 12.6875 
C 10.203125 18.5625 10.203125 27.15625 10.203125 32.75 
C 10.203125 40.4375 10.203125 46.828125 11.5 52.921875 
C 13.40625 61.390625 19 64 22.90625 64 
C 27 64 32.296875 61.296875 34.203125 53.125 
C 35.5 47.4375 35.59375 40.734375 35.59375 32.75 
C 35.59375 26.25 35.59375 18.265625 34.40625 12.375 
C 32.296875 1.484375 26.40625 -0.40625 22.90625 -0.40625 
" id="CMR17-48"/>
      </defs>
      <g transform="translate(392.791390659 549.550336182)scale(0.14 -0.14)">
       <use transform="scale(0.9962640099626402)" xlink:href="#CMR17-49"/>
       <use transform="translate(45.69047711706103 0.0)scale(0.9962640099626402)" xlink:href="#CMR17-48"/>
      </g>
     </g>
    </g>
    <g id="xtick_5">
     <g id="line2d_15">
      <g>
       <use style="stroke:#000000;stroke-width:0.5;" x="511.239758572" xlink:href="#m0eb7ab85f8" y="535.612687813"/>
      </g>
     </g>
     <g id="line2d_16">
      <g>
       <use style="stroke:#000000;stroke-width:0.5;" x="511.239758572" xlink:href="#m9e18707698" y="92.3138564274"/>
      </g>
     </g>
     <g id="text_6">
      <!-- $13$ -->
      <defs>
       <path d="M 22.09375 33.703125 
C 31 33.703125 34.90625 25.96875 34.90625 17.03125 
C 34.90625 5 28.5 0.390625 22.703125 0.390625 
C 17.40625 0.390625 8.796875 3.03125 6.09375 10.828125 
C 6.59375 10.625 7.09375 10.625 7.59375 10.625 
C 10 10.625 11.796875 12.21875 11.796875 14.8125 
C 11.796875 17.703125 9.59375 19 7.59375 19 
C 5.90625 19 3.296875 18.203125 3.296875 14.46875 
C 3.296875 5.234375 12.296875 -2 22.90625 -2 
C 34 -2 42.5 6.71875 42.5 16.953125 
C 42.5 26.671875 34.5 33.703125 25 34.796875 
C 32.59375 36.375 39.90625 43.0625 39.90625 52.015625 
C 39.90625 59.6875 32 65.296875 23 65.296875 
C 13.90625 65.296875 5.90625 59.828125 5.90625 52.015625 
C 5.90625 48.59375 8.5 48 9.796875 48 
C 11.90625 48 13.703125 49.296875 13.703125 51.890625 
C 13.703125 54.46875 11.90625 55.765625 9.796875 55.765625 
C 9.40625 55.765625 8.90625 55.765625 8.5 55.578125 
C 11.40625 61.859375 19.296875 63 22.796875 63 
C 26.296875 63 32.90625 61.328125 32.90625 51.875 
C 32.90625 49.109375 32.5 44.1875 29.09375 39.84375 
C 26.09375 36 22.703125 36 19.40625 35.6875 
C 18.90625 35.6875 16.59375 35.453125 16.203125 35.453125 
C 15.5 35.359375 15.09375 35.265625 15.09375 34.5 
C 15.09375 33.796875 15.203125 33.703125 17.203125 33.703125 
z
" id="CMR17-51"/>
      </defs>
      <g transform="translate(504.411269945 549.550336182)scale(0.14 -0.14)">
       <use transform="scale(0.9962640099626402)" xlink:href="#CMR17-49"/>
       <use transform="translate(45.69047711706103 0.0)scale(0.9962640099626402)" xlink:href="#CMR17-51"/>
      </g>
     </g>
    </g>
    <g id="text_7">
     <!--  $ \operatorname{Episode\;1\;Technical\;Rank} $  -->
     <defs>
      <path d="M 34.90625 35 
C 33 35 30.203125 35 30.203125 31.515625 
C 30.203125 28.71875 32.5 27.921875 33.796875 27.921875 
C 34.5 27.921875 37.40625 28.234375 37.40625 31.625 
C 37.40625 38.546875 30.59375 43.796875 22.90625 43.796875 
C 12.296875 43.796875 3.296875 34.03125 3.296875 21.296875 
C 3.296875 8.0625 12.703125 -1 22.90625 -1 
C 35.296875 -1 38.40625 10.578125 38.40625 11.6875 
C 38.40625 12.09375 38.296875 12.390625 37.59375 12.390625 
C 36.90625 12.390625 36.796875 12.296875 36.40625 10.984375 
C 33.796875 2.8125 28.09375 0.796875 23.796875 0.796875 
C 17.40625 0.796875 9.703125 6.671875 9.703125 21.390625 
C 9.703125 36.53125 17.09375 42 23 42 
C 26.90625 42 32.703125 40.203125 34.90625 35 
" id="CMR17-99"/>
      <path d="M 39.203125 33.53125 
C 48.703125 35.4375 56.703125 41.8125 56.703125 49.78125 
C 56.703125 59.140625 46.09375 67.59375 32.09375 67.59375 
L 5.203125 67.59375 
L 5.203125 65 
C 12.09375 65 13.203125 65 13.203125 60.515625 
L 13.203125 6.484375 
C 13.203125 2 12.09375 2 5.203125 2 
L 5.203125 -0.40625 
C 8.09375 -0.40625 13.296875 -0.40625 16.40625 -0.40625 
C 19.5 -0.40625 24.703125 -0.40625 27.59375 -0.40625 
L 27.59375 2 
C 20.703125 2 19.59375 2 19.59375 6.515625 
L 19.59375 33 
L 31.296875 33 
C 37 33 40.203125 30.6875 41.59375 29.390625 
C 45.59375 25.5 45.59375 22.796875 45.59375 16 
C 45.59375 9.296875 45.59375 5.890625 48.59375 2.5 
C 52.40625 -1.59375 57.5 -2 59.703125 -2 
C 67.09375 -2 68.203125 6.1875 68.203125 7.859375 
C 68.203125 8.4375 68.203125 9.140625 67.296875 9.140625 
C 66.5 9.140625 66.40625 8.546875 66.40625 8.15625 
C 65.90625 1.75 63 -0.40625 59.90625 -0.40625 
C 54.40625 -0.40625 53.796875 5.859375 53.203125 11.9375 
C 52.90625 14.03125 52.703125 15.515625 52.5 17.703125 
C 51.90625 22.6875 51.09375 29.953125 39.203125 33.53125 
M 31 34.59375 
L 19.59375 34.59375 
L 19.59375 61.140625 
C 19.59375 64.515625 19.796875 65 23.796875 65 
L 31.09375 65 
C 39.40625 65 49.09375 62.140625 49.09375 49.84375 
C 49.09375 37.0625 38.5 34.59375 31 34.59375 
" id="CMR17-82"/>
     </defs>
     <g transform="translate(211.402254668 567.45876247)scale(0.14 -0.14)">
      <use transform="scale(0.9962640099626402)" xlink:href="#CMR17-69"/>
      <use transform="translate(62.586300518563206 0.0)scale(0.9962640099626402)" xlink:href="#CMR17-112"/>
      <use transform="translate(113.48167029887921 0.0)scale(0.9962640099626402)" xlink:href="#CMR17-105"/>
      <use transform="translate(138.3527287807441 0.0)scale(0.9962640099626402)" xlink:href="#CMR17-115"/>
      <use transform="translate(174.15406641597914 0.0)scale(0.9962640099626402)" xlink:href="#CMR17-111"/>
      <use transform="translate(222.44698226377648 0.0)scale(0.9962640099626402)" xlink:href="#CMR17-100"/>
      <use transform="translate(273.3423520440925 0.0)scale(0.9962640099626402)" xlink:href="#CMR17-101"/>
      <use transform="translate(341.5020212289851 0.0)scale(0.9962640099626402)" xlink:href="#CMR17-49"/>
      <use transform="translate(414.86650706822076 0.0)scale(0.9962640099626402)" xlink:href="#CMR17-84"/>
      <use transform="translate(473.5691322336162 0.0)scale(0.9962640099626402)" xlink:href="#CMR17-101"/>
      <use transform="translate(514.0547926963341 0.0)scale(0.9962640099626402)" xlink:href="#CMR17-99"/>
      <use transform="translate(551.9379992265334 0.0)scale(0.9962640099626402)" xlink:href="#CMR17-104"/>
      <use transform="translate(602.8333690068494 0.0)scale(0.9962640099626402)" xlink:href="#CMR17-110"/>
      <use transform="translate(653.7287387871654 0.0)scale(0.9962640099626402)" xlink:href="#CMR17-105"/>
      <use transform="translate(678.5997972690303 0.0)scale(0.9962640099626402)" xlink:href="#CMR17-99"/>
      <use transform="translate(719.0854577317482 0.0)scale(0.9962640099626402)" xlink:href="#CMR17-97"/>
      <use transform="translate(764.7759348488092 0.0)scale(0.9962640099626402)" xlink:href="#CMR17-108"/>
      <use transform="translate(817.3210020528488 0.0)scale(0.9962640099626402)" xlink:href="#CMR17-82"/>
      <use transform="translate(885.1121040239727 0.0)scale(0.9962640099626402)" xlink:href="#CMR17-97"/>
      <use transform="translate(930.8025811410337 0.0)scale(0.9962640099626402)" xlink:href="#CMR17-110"/>
      <use transform="translate(981.6979509213497 0.0)scale(0.9962640099626402)" xlink:href="#CMR17-107"/>
     </g>
    </g>
   </g>
   <g id="matplotlib.axis_4">
    <g id="ytick_1">
     <g id="line2d_17">
      <defs>
       <path d="M 0 0 
L 4 0 
" id="me21ae52fb1" style="stroke:#000000;stroke-width:0.5;"/>
      </defs>
      <g>
       <use style="stroke:#000000;stroke-width:0.5;" x="46.1569282137" xlink:href="#me21ae52fb1" y="513.447746244"/>
      </g>
     </g>
     <g id="line2d_18">
      <defs>
       <path d="M 0 0 
L -4 0 
" id="m86df0d6838" style="stroke:#000000;stroke-width:0.5;"/>
      </defs>
      <g>
       <use style="stroke:#000000;stroke-width:0.5;" x="529.843071786" xlink:href="#m86df0d6838" y="513.447746244"/>
      </g>
     </g>
     <g id="text_8">
      <!-- $1$ -->
      <g transform="translate(35.3284395871 516.93118147)scale(0.14 -0.14)">
       <use transform="scale(0.9962640099626402)" xlink:href="#CMR17-49"/>
      </g>
     </g>
    </g>
    <g id="ytick_2">
     <g id="line2d_19">
      <g>
       <use style="stroke:#000000;stroke-width:0.5;" x="46.1569282137" xlink:href="#me21ae52fb1" y="380.458096828"/>
      </g>
     </g>
     <g id="line2d_20">
      <g>
       <use style="stroke:#000000;stroke-width:0.5;" x="529.843071786" xlink:href="#m86df0d6838" y="380.458096828"/>
      </g>
     </g>
     <g id="text_9">
      <!-- $4$ -->
      <g transform="translate(35.3284395871 383.941532054)scale(0.14 -0.14)">
       <use transform="scale(0.9962640099626402)" xlink:href="#CMR17-52"/>
      </g>
     </g>
    </g>
    <g id="ytick_3">
     <g id="line2d_21">
      <g>
       <use style="stroke:#000000;stroke-width:0.5;" x="46.1569282137" xlink:href="#me21ae52fb1" y="247.468447412"/>
      </g>
     </g>
     <g id="line2d_22">
      <g>
       <use style="stroke:#000000;stroke-width:0.5;" x="529.843071786" xlink:href="#m86df0d6838" y="247.468447412"/>
      </g>
     </g>
     <g id="text_10">
      <!-- $7$ -->
      <g transform="translate(35.3284395871 250.951882638)scale(0.14 -0.14)">
       <use transform="scale(0.9962640099626402)" xlink:href="#CMR17-55"/>
      </g>
     </g>
    </g>
    <g id="ytick_4">
     <g id="line2d_23">
      <g>
       <use style="stroke:#000000;stroke-width:0.5;" x="46.1569282137" xlink:href="#me21ae52fb1" y="114.478797997"/>
      </g>
     </g>
     <g id="line2d_24">
      <g>
       <use style="stroke:#000000;stroke-width:0.5;" x="529.843071786" xlink:href="#m86df0d6838" y="114.478797997"/>
      </g>
     </g>
     <g id="text_11">
      <!-- $10$ -->
      <g transform="translate(28.4999509604 117.962233222)scale(0.14 -0.14)">
       <use transform="scale(0.9962640099626402)" xlink:href="#CMR17-49"/>
       <use transform="translate(45.69047711706103 0.0)scale(0.9962640099626402)" xlink:href="#CMR17-48"/>
      </g>
     </g>
    </g>
    <g id="text_12">
     <!--  $ \operatorname{Number\;of\;Episodes\;Survived} $  -->
     <defs>
      <path d="M 20.5 66.40625 
C 19.796875 67.5 19.703125 67.5 17.796875 67.5 
L 5.09375 67.5 
L 5.09375 65 
L 7 65 
C 11 65 12.796875 64.515625 13.09375 64.40625 
L 13.09375 9.53125 
C 13.09375 7.046875 13.09375 2.390625 5.09375 2.390625 
L 5.09375 -0.203125 
C 7.40625 0 11.59375 0 14.09375 0 
C 16.59375 0 20.796875 0 23.09375 -0.203125 
L 23.09375 2.390625 
C 15.09375 2.390625 15.09375 7.046875 15.09375 9.53125 
L 15.09375 63.015625 
C 15.796875 62.421875 15.796875 62.21875 16.5 61.234375 
L 53.59375 1.1875 
C 54.296875 0 54.59375 0 55.09375 0 
C 56.09375 0 56.09375 0.296875 56.09375 2.171875 
L 56.09375 57.890625 
C 56.09375 60.359375 56.09375 65 64.09375 65 
L 64.09375 67.59375 
C 61.796875 67.5 57.59375 67.5 55.09375 67.5 
C 52.59375 67.5 48.40625 67.5 46.09375 67.59375 
L 46.09375 65 
C 54.09375 65 54.09375 60.34375 54.09375 57.859375 
L 54.09375 11.921875 
z
" id="CMR17-78"/>
      <path d="M 15 68.6875 
L 3.09375 67.59375 
L 3.09375 65 
C 9 65 9.90625 64.40625 9.90625 59.640625 
L 9.90625 -0.203125 
L 11.703125 -0.203125 
L 14.59375 6.890625 
C 17.5 2.203125 21.796875 -1 27.59375 -1 
C 37.59375 -1 47.703125 7.8125 47.703125 21.40625 
C 47.703125 34.1875 38.703125 43.59375 28.59375 43.59375 
C 22.40625 43.59375 18 40.296875 15 36.40625 
z
M 15.203125 31.3125 
C 15.203125 33.09375 15.203125 33.40625 16.59375 35.5 
C 20.5 41.515625 26.09375 42 28 42 
C 31 42 41.296875 40.390625 41.296875 21.5 
C 41.296875 1.6875 29.5 0.59375 27.09375 0.59375 
C 24 0.59375 19.5 1.78125 16.296875 7.59375 
C 15.203125 9.5 15.203125 9.703125 15.203125 11.484375 
z
" id="CMR17-98"/>
      <path d="M 39.09375 33.796875 
C 40 36 41.59375 40 47.40625 40 
L 47.40625 42.59375 
C 45.5 42.59375 43 42.59375 41.09375 42.59375 
C 39 42.59375 35.703125 42.59375 33.703125 42.6875 
L 33.703125 40.09375 
C 36.203125 39.890625 37.59375 38.703125 37.59375 36.109375 
C 37.59375 35.203125 37.59375 35 37 33.609375 
L 26 5.890625 
L 14.09375 35.71875 
C 13.5 37.015625 13.5 37.203125 13.5 37.609375 
C 13.5 40 16.796875 40 18.296875 40 
L 18.296875 42.6875 
C 15.90625 42.59375 11.5 42.59375 9 42.59375 
C 6.296875 42.59375 3.203125 42.59375 1 42.6875 
L 1 40 
C 4.796875 40 6.90625 40 8.09375 36.90625 
L 22.59375 0.6875 
C 23.203125 -0.796875 23.296875 -1 24.203125 -1 
C 25.09375 -1 25.203125 -0.796875 25.796875 0.6875 
z
" id="CMR17-118"/>
     </defs>
     <g transform="translate(20.5291730427 401.990659955)rotate(-90.0)scale(0.14 -0.14)">
      <use transform="scale(0.9962640099626402)" xlink:href="#CMR17-78"/>
      <use transform="translate(69.0724298042497 0.0)scale(0.9962640099626402)" xlink:href="#CMR17-117"/>
      <use transform="translate(119.9677995845657 0.0)scale(0.9962640099626402)" xlink:href="#CMR17-109"/>
      <use transform="translate(194.2849355201199 0.0)scale(0.9962640099626402)" xlink:href="#CMR17-98"/>
      <use transform="translate(247.7827440311722 0.0)scale(0.9962640099626402)" xlink:href="#CMR17-101"/>
      <use transform="translate(288.2684044938901 0.0)scale(0.9962640099626402)" xlink:href="#CMR17-114"/>
      <use transform="translate(351.22318101552776 0.0)scale(0.9962640099626402)" xlink:href="#CMR17-111"/>
      <use transform="translate(396.91365813258875 0.0)scale(0.9962640099626402)" xlink:href="#CMR17-102"/>
      <use transform="translate(457.966691678666 0.0)scale(0.9962640099626402)" xlink:href="#CMR17-69"/>
      <use transform="translate(520.5529921972292 0.0)scale(0.9962640099626402)" xlink:href="#CMR17-112"/>
      <use transform="translate(571.4483619775452 0.0)scale(0.9962640099626402)" xlink:href="#CMR17-105"/>
      <use transform="translate(596.31942045941 0.0)scale(0.9962640099626402)" xlink:href="#CMR17-115"/>
      <use transform="translate(632.1207580946451 0.0)scale(0.9962640099626402)" xlink:href="#CMR17-111"/>
      <use transform="translate(680.4136739424424 0.0)scale(0.9962640099626402)" xlink:href="#CMR17-100"/>
      <use transform="translate(731.3090437227585 0.0)scale(0.9962640099626402)" xlink:href="#CMR17-101"/>
      <use transform="translate(771.7947041854765 0.0)scale(0.9962640099626402)" xlink:href="#CMR17-115"/>
      <use transform="translate(835.2700505428861 0.0)scale(0.9962640099626402)" xlink:href="#CMR17-83"/>
      <use transform="translate(886.1654203232022 0.0)scale(0.9962640099626402)" xlink:href="#CMR17-117"/>
      <use transform="translate(937.0607901035181 0.0)scale(0.9962640099626402)" xlink:href="#CMR17-114"/>
      <use transform="translate(972.3415579029811 0.0)scale(0.9962640099626402)" xlink:href="#CMR17-118"/>
      <use transform="translate(1020.6344737507784 0.0)scale(0.9962640099626402)" xlink:href="#CMR17-105"/>
      <use transform="translate(1045.5055322326434 0.0)scale(0.9962640099626402)" xlink:href="#CMR17-118"/>
      <use transform="translate(1091.195994147922 0.0)scale(0.9962640099626402)" xlink:href="#CMR17-101"/>
      <use transform="translate(1131.68165461064 0.0)scale(0.9962640099626402)" xlink:href="#CMR17-100"/>
     </g>
    </g>
   </g>
   <g id="text_13">
    <!--  $ \operatorname{Top\;3\;in} $  -->
    <g transform="translate(79.6497930659 516.13268596)scale(0.14 -0.14)">
     <use transform="scale(0.9962640099626402)" xlink:href="#CMR17-84"/>
     <use transform="translate(58.702625165395396 0.0)scale(0.9962640099626402)" xlink:href="#CMR17-111"/>
     <use transform="translate(104.39310228245643 0.0)scale(0.9962640099626402)" xlink:href="#CMR17-112"/>
     <use transform="translate(182.9624807849471 0.0)scale(0.9962640099626402)" xlink:href="#CMR17-51"/>
     <use transform="translate(256.3269666241828 0.0)scale(0.9962640099626402)" xlink:href="#CMR17-105"/>
     <use transform="translate(281.1980251060477 0.0)scale(0.9962640099626402)" xlink:href="#CMR17-110"/>
    </g>
    <!--  $ \operatorname{this\;episode} $  -->
    <g transform="translate(69.3715487623 531.028641921)scale(0.14 -0.14)">
     <use transform="scale(0.9962640099626402)" xlink:href="#CMR17-116"/>
     <use transform="translate(35.28076779946296 0.0)scale(0.9962640099626402)" xlink:href="#CMR17-104"/>
     <use transform="translate(86.17613757977897 0.0)scale(0.9962640099626402)" xlink:href="#CMR17-105"/>
     <use transform="translate(111.04719606164385 0.0)scale(0.9962640099626402)" xlink:href="#CMR17-115"/>
     <use transform="translate(174.52254241905356 0.0)scale(0.9962640099626402)" xlink:href="#CMR17-101"/>
     <use transform="translate(215.0082028817715 0.0)scale(0.9962640099626402)" xlink:href="#CMR17-112"/>
     <use transform="translate(265.9035726620875 0.0)scale(0.9962640099626402)" xlink:href="#CMR17-105"/>
     <use transform="translate(290.7746311439524 0.0)scale(0.9962640099626402)" xlink:href="#CMR17-115"/>
     <use transform="translate(326.57596877918746 0.0)scale(0.9962640099626402)" xlink:href="#CMR17-111"/>
     <use transform="translate(374.86888462698477 0.0)scale(0.9962640099626402)" xlink:href="#CMR17-100"/>
     <use transform="translate(425.76425440730077 0.0)scale(0.9962640099626402)" xlink:href="#CMR17-101"/>
    </g>
   </g>
   <g id="text_14">
    <!--  $ \operatorname{Season} $  -->
    <g transform="translate(508.949514007 139.055827759)rotate(-90.0)scale(0.14 -0.14)">
     <use transform="scale(0.9962640099626402)" xlink:href="#CMR17-83"/>
     <use transform="translate(50.89536978031601 0.0)scale(0.9962640099626402)" xlink:href="#CMR17-101"/>
     <use transform="translate(91.38103024303395 0.0)scale(0.9962640099626402)" xlink:href="#CMR17-97"/>
     <use transform="translate(137.07150736009498 0.0)scale(0.9962640099626402)" xlink:href="#CMR17-115"/>
     <use transform="translate(172.87284499533004 0.0)scale(0.9962640099626402)" xlink:href="#CMR17-111"/>
     <use transform="translate(218.56332211239106 0.0)scale(0.9962640099626402)" xlink:href="#CMR17-110"/>
    </g>
    <!--  $ \operatorname{finalists} $  -->
    <defs>
     <path d="M 39.90625 43.1875 
C 37.5 43.1875 30.09375 43.1875 28.203125 42.796875 
C 27.59375 42.578125 27.40625 42.578125 26.203125 42.578125 
L 14.796875 42.578125 
L 14.796875 54.203125 
C 14.796875 63.640625 22.40625 68 28.40625 68 
C 30.296875 68 34.59375 67.5 36.796875 64.078125 
C 35.796875 64.078125 32.59375 64.078125 32.59375 60.59375 
C 32.59375 58.203125 34.203125 57 36.203125 57 
C 38 57 39.796875 58 39.796875 60.703125 
C 39.796875 65.703125 35 69.59375 28.796875 69.59375 
C 20.90625 69.59375 9.90625 65.125 9.90625 54.203125 
L 9.90625 42.578125 
L 1.90625 42.578125 
L 1.90625 40 
L 9.90625 40 
L 9.90625 6.671875 
C 9.90625 2.875 9.5 2.390625 3.09375 2.390625 
L 3.09375 -0.203125 
C 5.5 0 9.90625 0 12.40625 0 
C 15 0 19.40625 0 21.796875 -0.203125 
L 21.796875 2.390625 
C 15.40625 2.390625 15 2.78125 15 6.671875 
L 15 40 
L 29.703125 40 
C 34 40 34.796875 39.09375 34.796875 34.71875 
L 34.796875 6.671875 
C 34.796875 2.875 34.40625 2.390625 28 2.390625 
L 28 -0.203125 
C 30.40625 0 34.796875 0 37.296875 0 
C 39.90625 0 44.296875 0 46.703125 -0.203125 
L 46.703125 2.390625 
C 40.296875 2.390625 39.90625 2.78125 39.90625 6.671875 
z
" id="CMR17-12"/>
    </defs>
    <g transform="translate(523.845469968 141.749287162)rotate(-90.0)scale(0.14 -0.14)">
     <use transform="scale(0.9962640099626402)" xlink:href="#CMR17-12"/>
     <use transform="translate(49.74222337620642 0.0)scale(0.9962640099626402)" xlink:href="#CMR17-110"/>
     <use transform="translate(100.63759315652243 0.0)scale(0.9962640099626402)" xlink:href="#CMR17-97"/>
     <use transform="translate(146.32807027358345 0.0)scale(0.9962640099626402)" xlink:href="#CMR17-108"/>
     <use transform="translate(171.19912875544833 0.0)scale(0.9962640099626402)" xlink:href="#CMR17-105"/>
     <use transform="translate(196.0701872373132 0.0)scale(0.9962640099626402)" xlink:href="#CMR17-115"/>
     <use transform="translate(231.8715248725483 0.0)scale(0.9962640099626402)" xlink:href="#CMR17-116"/>
     <use transform="translate(267.15229267201124 0.0)scale(0.9962640099626402)" xlink:href="#CMR17-115"/>
    </g>
   </g>
   <g id="text_15">
    <!--  $ \operatorname{R^2\!=\!0.00} $  -->
    <defs>
     <path d="M 64.296875 31.515625 
C 65.796875 31.515625 67.296875 31.515625 67.296875 33.203125 
C 67.296875 35 65.59375 35 63.90625 35 
L 8 35 
C 6.296875 35 4.59375 35 4.59375 33.203125 
C 4.59375 31.515625 6.09375 31.515625 7.59375 31.515625 
z
M 63.90625 14 
C 65.59375 14 67.296875 14 67.296875 15.796875 
C 67.296875 17.484375 65.796875 17.484375 64.296875 17.484375 
L 7.59375 17.484375 
C 6.09375 17.484375 4.59375 17.484375 4.59375 15.796875 
C 4.59375 14 6.296875 14 8 14 
z
" id="CMR17-61"/>
     <path d="M 18.40625 4.796875 
C 18.40625 7.6875 16 9.671875 13.59375 9.671875 
C 10.703125 9.671875 8.703125 7.28125 8.703125 4.890625 
C 8.703125 2 11.09375 0 13.5 0 
C 16.40625 0 18.40625 2.390625 18.40625 4.796875 
" id="CMMI12-58"/>
     <path d="M 41.703125 15.453125 
L 39.90625 15.453125 
C 38.90625 8.375 38.09375 7.171875 37.703125 6.5625 
C 37.203125 5.765625 30 5.765625 28.59375 5.765625 
L 9.40625 5.765625 
C 13 9.671875 20 16.75 28.5 24.953125 
C 34.59375 30.734375 41.703125 37.53125 41.703125 47.421875 
C 41.703125 59.21875 32.296875 66 21.796875 66 
C 10.796875 66 4.09375 56.3125 4.09375 47.34375 
C 4.09375 43.4375 7 42.9375 8.203125 42.9375 
C 9.203125 42.9375 12.203125 43.546875 12.203125 47.03125 
C 12.203125 50.109375 9.59375 51 8.203125 51 
C 7.59375 51 7 50.90625 6.59375 50.703125 
C 8.5 59.21875 14.296875 63.40625 20.40625 63.40625 
C 29.09375 63.40625 34.796875 56.515625 34.796875 47.421875 
C 34.796875 38.734375 29.703125 31.25 24 24.75 
L 4.09375 2.28125 
L 4.09375 0 
L 39.296875 0 
z
" id="CMR17-50"/>
    </defs>
    <g transform="translate(260.054388633 317.446707346)scale(0.14 -0.14)">
     <use transform="scale(0.9962640099626402)" xlink:href="#CMR17-82"/>
     <use transform="translate(67.79110197112392 36.15363894185866)scale(0.6973817666173724)" xlink:href="#CMR17-50"/>
     <use transform="translate(111.34201942909404 0.0)scale(0.9962640099626402)" xlink:href="#CMR17-61"/>
     <use transform="translate(194.12641133347606 0.0)scale(0.9962640099626402)" xlink:href="#CMR17-48"/>
     <use transform="translate(239.81688845053708 0.0)scale(0.9962640099626402)" xlink:href="#CMMI12-58"/>
     <use transform="translate(283.5184707736613 0.0)scale(0.9962640099626402)" xlink:href="#CMR17-48"/>
     <use transform="translate(329.2089478907223 0.0)scale(0.9962640099626402)" xlink:href="#CMR17-48"/>
    </g>
   </g>
   <g id="legend_1">
    <g id="line2d_25"/>
    <g id="line2d_26">
     <g>
      <use style="fill:#001c7f;stroke:#001c7f;stroke-width:0.5;" x="74.7169282137" xlink:href="#mc7c18764b0" y="23.5747910296"/>
     </g>
    </g>
    <g id="text_16">
     <!--  $ \operatorname{Series\;3} $  -->
     <g transform="translate(84.7969282137 29.4547910296)scale(0.168 -0.168)">
      <use transform="scale(0.9962640099626402)" xlink:href="#CMR17-83"/>
      <use transform="translate(50.89536978031601 0.0)scale(0.9962640099626402)" xlink:href="#CMR17-101"/>
      <use transform="translate(91.38103024303395 0.0)scale(0.9962640099626402)" xlink:href="#CMR17-114"/>
      <use transform="translate(126.6617980424969 0.0)scale(0.9962640099626402)" xlink:href="#CMR17-105"/>
      <use transform="translate(151.5328565243618 0.0)scale(0.9962640099626402)" xlink:href="#CMR17-101"/>
      <use transform="translate(192.01851698707972 0.0)scale(0.9962640099626402)" xlink:href="#CMR17-115"/>
      <use transform="translate(255.49386334448943 0.0)scale(0.9962640099626402)" xlink:href="#CMR17-51"/>
     </g>
    </g>
    <g id="line2d_27"/>
    <g id="line2d_28">
     <g>
      <use style="fill:#017517;stroke:#017517;stroke-width:0.5;" x="169.562114432" xlink:href="#m2610090a4c" y="23.5747910296"/>
     </g>
    </g>
    <g id="text_17">
     <!--  $ \operatorname{Series\;4} $  -->
     <g transform="translate(179.642114432 29.4547910296)scale(0.168 -0.168)">
      <use transform="scale(0.9962640099626402)" xlink:href="#CMR17-83"/>
      <use transform="translate(50.89536978031601 0.0)scale(0.9962640099626402)" xlink:href="#CMR17-101"/>
      <use transform="translate(91.38103024303395 0.0)scale(0.9962640099626402)" xlink:href="#CMR17-114"/>
      <use transform="translate(126.6617980424969 0.0)scale(0.9962640099626402)" xlink:href="#CMR17-105"/>
      <use transform="translate(151.5328565243618 0.0)scale(0.9962640099626402)" xlink:href="#CMR17-101"/>
      <use transform="translate(192.01851698707972 0.0)scale(0.9962640099626402)" xlink:href="#CMR17-115"/>
      <use transform="translate(255.49386334448943 0.0)scale(0.9962640099626402)" xlink:href="#CMR17-52"/>
     </g>
    </g>
    <g id="line2d_29"/>
    <g id="line2d_30">
     <g>
      <use style="fill:#8c0900;stroke:#8c0900;stroke-width:0.5;" x="264.40730065" xlink:href="#m88cff7e3b0" y="23.5747910296"/>
     </g>
    </g>
    <g id="text_18">
     <!--  $ \operatorname{Series\;5} $  -->
     <defs>
      <path d="M 11.40625 57.6875 
C 12.40625 57.28125 16.5 56 20.703125 56 
C 30 56 35.09375 61.109375 38 64.0625 
C 38 64.953125 38 65.5 37.40625 65.5 
C 37.296875 65.5 37.09375 65.5 36.296875 65.046875 
C 32.796875 63.40625 28.703125 62.078125 23.703125 62.078125 
C 20.703125 62.078125 16.203125 62.484375 11.296875 64.671875 
C 10.203125 65.171875 10 65.171875 9.90625 65.171875 
C 9.40625 65.171875 9.296875 65.0625 9.296875 63.078125 
L 9.296875 34.421875 
C 9.296875 32.640625 9.296875 32.140625 10.296875 32.140625 
C 10.796875 32.140625 11 32.34375 11.5 33.03125 
C 14.703125 37.515625 19.09375 39.40625 24.09375 39.40625 
C 27.59375 39.40625 35.09375 37.21875 35.09375 20.140625 
C 35.09375 16.953125 35.09375 11.171875 32.09375 6.578125 
C 29.59375 2.484375 25.703125 0.390625 21.40625 0.390625 
C 14.796875 0.390625 8.09375 5 6.296875 12.71875 
C 6.703125 12.609375 7.5 12.421875 7.90625 12.421875 
C 9.203125 12.421875 11.703125 13.125 11.703125 16.21875 
C 11.703125 18.90625 9.796875 20 7.90625 20 
C 5.59375 20 4.09375 18.59375 4.09375 15.796875 
C 4.09375 7.09375 11 -2 21.59375 -2 
C 31.90625 -2 41.703125 6.875 41.703125 19.75 
C 41.703125 31.71875 33.90625 41 24.203125 41 
C 19.09375 41 14.796875 39.109375 11.40625 35.53125 
z
" id="CMR17-53"/>
     </defs>
     <g transform="translate(274.48730065 29.4547910296)scale(0.168 -0.168)">
      <use transform="scale(0.9962640099626402)" xlink:href="#CMR17-83"/>
      <use transform="translate(50.89536978031601 0.0)scale(0.9962640099626402)" xlink:href="#CMR17-101"/>
      <use transform="translate(91.38103024303395 0.0)scale(0.9962640099626402)" xlink:href="#CMR17-114"/>
      <use transform="translate(126.6617980424969 0.0)scale(0.9962640099626402)" xlink:href="#CMR17-105"/>
      <use transform="translate(151.5328565243618 0.0)scale(0.9962640099626402)" xlink:href="#CMR17-101"/>
      <use transform="translate(192.01851698707972 0.0)scale(0.9962640099626402)" xlink:href="#CMR17-115"/>
      <use transform="translate(255.49386334448943 0.0)scale(0.9962640099626402)" xlink:href="#CMR17-53"/>
     </g>
    </g>
    <g id="line2d_31"/>
    <g id="line2d_32">
     <g>
      <use style="fill:#7600a1;stroke:#7600a1;stroke-width:0.5;" x="359.252486868" xlink:href="#m440ca1bc55" y="23.5747910296"/>
     </g>
    </g>
    <g id="text_19">
     <!--  $ \operatorname{Series\;6} $  -->
     <defs>
      <path d="M 10.59375 34 
C 10.59375 57.65625 21.796875 63 28.296875 63 
C 30.40625 63 35.5 62.640625 37.5 59 
C 35.90625 59 32.90625 59 32.90625 55.515625 
C 32.90625 52.828125 35.09375 51.921875 36.5 51.921875 
C 37.40625 51.921875 40.09375 52.3125 40.09375 55.625 
C 40.09375 61.78125 35.09375 65.296875 28.203125 65.296875 
C 16.296875 65.296875 3.796875 52.96875 3.796875 31 
C 3.796875 3.953125 15.09375 -2 23.09375 -2 
C 32.796875 -2 42 6.671875 42 20.046875 
C 42 32.515625 33.90625 41.59375 23.703125 41.59375 
C 17.59375 41.59375 13.09375 37.609375 10.59375 30.625 
z
M 23.09375 0.390625 
C 10.796875 0.390625 10.796875 18.75 10.796875 22.4375 
C 10.796875 29.625 14.203125 40 23.5 40 
C 25.203125 40 30.09375 40 33.40625 33.125 
C 35.203125 29.21875 35.203125 25.140625 35.203125 20.140625 
C 35.203125 14.75 35.203125 10.78125 33.09375 6.78125 
C 30.90625 2.671875 27.703125 0.390625 23.09375 0.390625 
" id="CMR17-54"/>
     </defs>
     <g transform="translate(369.332486868 29.4547910296)scale(0.168 -0.168)">
      <use transform="scale(0.9962640099626402)" xlink:href="#CMR17-83"/>
      <use transform="translate(50.89536978031601 0.0)scale(0.9962640099626402)" xlink:href="#CMR17-101"/>
      <use transform="translate(91.38103024303395 0.0)scale(0.9962640099626402)" xlink:href="#CMR17-114"/>
      <use transform="translate(126.6617980424969 0.0)scale(0.9962640099626402)" xlink:href="#CMR17-105"/>
      <use transform="translate(151.5328565243618 0.0)scale(0.9962640099626402)" xlink:href="#CMR17-101"/>
      <use transform="translate(192.01851698707972 0.0)scale(0.9962640099626402)" xlink:href="#CMR17-115"/>
      <use transform="translate(255.49386334448943 0.0)scale(0.9962640099626402)" xlink:href="#CMR17-54"/>
     </g>
    </g>
    <g id="line2d_33"/>
    <g id="line2d_34">
     <g>
      <use style="fill:#b8860b;stroke:#b8860b;stroke-width:0.5;" x="454.097673086" xlink:href="#mac7ead934b" y="23.5747910296"/>
     </g>
    </g>
    <g id="text_20">
     <!--  $ \operatorname{Series\;7} $  -->
     <g transform="translate(464.177673086 29.4547910296)scale(0.168 -0.168)">
      <use transform="scale(0.9962640099626402)" xlink:href="#CMR17-83"/>
      <use transform="translate(50.89536978031601 0.0)scale(0.9962640099626402)" xlink:href="#CMR17-101"/>
      <use transform="translate(91.38103024303395 0.0)scale(0.9962640099626402)" xlink:href="#CMR17-114"/>
      <use transform="translate(126.6617980424969 0.0)scale(0.9962640099626402)" xlink:href="#CMR17-105"/>
      <use transform="translate(151.5328565243618 0.0)scale(0.9962640099626402)" xlink:href="#CMR17-101"/>
      <use transform="translate(192.01851698707972 0.0)scale(0.9962640099626402)" xlink:href="#CMR17-115"/>
      <use transform="translate(255.49386334448943 0.0)scale(0.9962640099626402)" xlink:href="#CMR17-55"/>
     </g>
    </g>
   </g>
  </g>
 </g>
 <defs>
  <clipPath id="p2db642d325">
   <rect height="443.298831386" width="483.686143573" x="46.1569282137" y="92.3138564274"/>
  </clipPath>
 </defs>
</svg>
